%TF.GenerationSoftware,KiCad,Pcbnew,9.0.0*%
%TF.CreationDate,2025-03-22T03:19:02+00:00*%
%TF.ProjectId,PicoConsole,5069636f-436f-46e7-936f-6c652e6b6963,1*%
%TF.SameCoordinates,Original*%
%TF.FileFunction,Copper,L2,Bot*%
%TF.FilePolarity,Positive*%
%FSLAX46Y46*%
G04 Gerber Fmt 4.6, Leading zero omitted, Abs format (unit mm)*
G04 Created by KiCad (PCBNEW 9.0.0) date 2025-03-22 03:19:02*
%MOMM*%
%LPD*%
G01*
G04 APERTURE LIST*
G04 Aperture macros list*
%AMRoundRect*
0 Rectangle with rounded corners*
0 $1 Rounding radius*
0 $2 $3 $4 $5 $6 $7 $8 $9 X,Y pos of 4 corners*
0 Add a 4 corners polygon primitive as box body*
4,1,4,$2,$3,$4,$5,$6,$7,$8,$9,$2,$3,0*
0 Add four circle primitives for the rounded corners*
1,1,$1+$1,$2,$3*
1,1,$1+$1,$4,$5*
1,1,$1+$1,$6,$7*
1,1,$1+$1,$8,$9*
0 Add four rect primitives between the rounded corners*
20,1,$1+$1,$2,$3,$4,$5,0*
20,1,$1+$1,$4,$5,$6,$7,0*
20,1,$1+$1,$6,$7,$8,$9,0*
20,1,$1+$1,$8,$9,$2,$3,0*%
%AMFreePoly0*
4,1,37,0.800000,0.796148,0.878414,0.796148,1.032228,0.765552,1.177117,0.705537,1.307515,0.618408,1.418408,0.507515,1.505537,0.377117,1.565552,0.232228,1.596148,0.078414,1.596148,-0.078414,1.565552,-0.232228,1.505537,-0.377117,1.418408,-0.507515,1.307515,-0.618408,1.177117,-0.705537,1.032228,-0.765552,0.878414,-0.796148,0.800000,-0.796148,0.800000,-0.800000,-1.400000,-0.800000,
-1.403843,-0.796157,-1.439018,-0.796157,-1.511114,-0.766294,-1.566294,-0.711114,-1.596157,-0.639018,-1.596157,-0.603843,-1.600000,-0.600000,-1.600000,0.600000,-1.596157,0.603843,-1.596157,0.639018,-1.566294,0.711114,-1.511114,0.766294,-1.439018,0.796157,-1.403843,0.796157,-1.400000,0.800000,0.800000,0.800000,0.800000,0.796148,0.800000,0.796148,$1*%
%AMFreePoly1*
4,1,37,1.403843,0.796157,1.439018,0.796157,1.511114,0.766294,1.566294,0.711114,1.596157,0.639018,1.596157,0.603843,1.600000,0.600000,1.600000,-0.600000,1.596157,-0.603843,1.596157,-0.639018,1.566294,-0.711114,1.511114,-0.766294,1.439018,-0.796157,1.403843,-0.796157,1.400000,-0.800000,-0.800000,-0.800000,-0.800000,-0.796148,-0.878414,-0.796148,-1.032228,-0.765552,-1.177117,-0.705537,
-1.307515,-0.618408,-1.418408,-0.507515,-1.505537,-0.377117,-1.565552,-0.232228,-1.596148,-0.078414,-1.596148,0.078414,-1.565552,0.232228,-1.505537,0.377117,-1.418408,0.507515,-1.307515,0.618408,-1.177117,0.705537,-1.032228,0.765552,-0.878414,0.796148,-0.800000,0.796148,-0.800000,0.800000,1.400000,0.800000,1.403843,0.796157,1.403843,0.796157,$1*%
%AMFreePoly2*
4,1,37,0.603843,0.796157,0.639018,0.796157,0.711114,0.766294,0.766294,0.711114,0.796157,0.639018,0.796157,0.603843,0.800000,0.600000,0.800000,-0.600000,0.796157,-0.603843,0.796157,-0.639018,0.766294,-0.711114,0.711114,-0.766294,0.639018,-0.796157,0.603843,-0.796157,0.600000,-0.800000,0.000000,-0.800000,0.000000,-0.796148,-0.078414,-0.796148,-0.232228,-0.765552,-0.377117,-0.705537,
-0.507515,-0.618408,-0.618408,-0.507515,-0.705537,-0.377117,-0.765552,-0.232228,-0.796148,-0.078414,-0.796148,0.078414,-0.765552,0.232228,-0.705537,0.377117,-0.618408,0.507515,-0.507515,0.618408,-0.377117,0.705537,-0.232228,0.765552,-0.078414,0.796148,0.000000,0.796148,0.000000,0.800000,0.600000,0.800000,0.603843,0.796157,0.603843,0.796157,$1*%
%AMFreePoly3*
4,1,37,0.000000,0.796148,0.078414,0.796148,0.232228,0.765552,0.377117,0.705537,0.507515,0.618408,0.618408,0.507515,0.705537,0.377117,0.765552,0.232228,0.796148,0.078414,0.796148,-0.078414,0.765552,-0.232228,0.705537,-0.377117,0.618408,-0.507515,0.507515,-0.618408,0.377117,-0.705537,0.232228,-0.765552,0.078414,-0.796148,0.000000,-0.796148,0.000000,-0.800000,-0.600000,-0.800000,
-0.603843,-0.796157,-0.639018,-0.796157,-0.711114,-0.766294,-0.766294,-0.711114,-0.796157,-0.639018,-0.796157,-0.603843,-0.800000,-0.600000,-0.800000,0.600000,-0.796157,0.603843,-0.796157,0.639018,-0.766294,0.711114,-0.711114,0.766294,-0.639018,0.796157,-0.603843,0.796157,-0.600000,0.800000,0.000000,0.800000,0.000000,0.796148,0.000000,0.796148,$1*%
G04 Aperture macros list end*
%TA.AperFunction,ComponentPad*%
%ADD10C,1.905000*%
%TD*%
%TA.AperFunction,ComponentPad*%
%ADD11C,4.000000*%
%TD*%
%TA.AperFunction,SMDPad,CuDef*%
%ADD12RoundRect,0.249900X0.600100X0.950100X-0.600100X0.950100X-0.600100X-0.950100X0.600100X-0.950100X0*%
%TD*%
%TA.AperFunction,SMDPad,CuDef*%
%ADD13RoundRect,0.250200X0.649800X0.949800X-0.649800X0.949800X-0.649800X-0.949800X0.649800X-0.949800X0*%
%TD*%
%TA.AperFunction,SMDPad,CuDef*%
%ADD14RoundRect,0.249900X0.100100X0.750100X-0.100100X0.750100X-0.100100X-0.750100X0.100100X-0.750100X0*%
%TD*%
%TA.AperFunction,SMDPad,CuDef*%
%ADD15RoundRect,0.250400X0.149600X0.749600X-0.149600X0.749600X-0.149600X-0.749600X0.149600X-0.749600X0*%
%TD*%
%TA.AperFunction,SMDPad,CuDef*%
%ADD16FreePoly0,180.000000*%
%TD*%
%TA.AperFunction,ComponentPad*%
%ADD17RoundRect,0.200000X0.600000X0.600000X-0.600000X0.600000X-0.600000X-0.600000X0.600000X-0.600000X0*%
%TD*%
%TA.AperFunction,SMDPad,CuDef*%
%ADD18RoundRect,0.800000X0.800000X0.000010X-0.800000X0.000010X-0.800000X-0.000010X0.800000X-0.000010X0*%
%TD*%
%TA.AperFunction,ComponentPad*%
%ADD19C,1.600000*%
%TD*%
%TA.AperFunction,SMDPad,CuDef*%
%ADD20FreePoly1,180.000000*%
%TD*%
%TA.AperFunction,ComponentPad*%
%ADD21FreePoly2,180.000000*%
%TD*%
%TA.AperFunction,ComponentPad*%
%ADD22FreePoly3,180.000000*%
%TD*%
%TA.AperFunction,ViaPad*%
%ADD23C,0.600000*%
%TD*%
%TA.AperFunction,Conductor*%
%ADD24C,0.300000*%
%TD*%
G04 APERTURE END LIST*
D10*
%TO.P,but2,4,GND*%
%TO.N,pinTwo*%
X133880000Y-109753900D03*
%TO.P,but2,3,GND*%
%TO.N,unconnected-(but2-GND-Pad3)*%
X133880000Y-105253900D03*
%TO.P,but2,2,VCC*%
%TO.N,VCC*%
X127380000Y-109753900D03*
%TO.P,but2,1,VCC*%
%TO.N,unconnected-(but2-VCC-Pad1)*%
X127380000Y-105253900D03*
%TD*%
%TO.P,but1,4,GND*%
%TO.N,pinThree*%
X127380000Y-99753900D03*
%TO.P,but1,3,GND*%
%TO.N,unconnected-(but1-GND-Pad3)*%
X127380000Y-95253900D03*
%TO.P,but1,2,VCC*%
%TO.N,VCC*%
X120880000Y-99753900D03*
%TO.P,but1,1,VCC*%
%TO.N,unconnected-(but1-VCC-Pad1)*%
X120880000Y-95253900D03*
%TD*%
D11*
%TO.P,e,1*%
%TO.N,N/C*%
X134030000Y-72603900D03*
%TD*%
%TO.P,REF\u002A\u002A,1*%
%TO.N,N/C*%
X179730000Y-50903900D03*
%TD*%
D10*
%TO.P,but3,4,GND*%
%TO.N,pinOne*%
X139880000Y-99753900D03*
%TO.P,but3,3,GND*%
%TO.N,unconnected-(but3-GND-Pad3)*%
X139880000Y-95253900D03*
%TO.P,but3,2,VCC*%
%TO.N,VCC*%
X133380000Y-99753900D03*
%TO.P,but3,1,VCC*%
%TO.N,unconnected-(but3-VCC-Pad1)*%
X133380000Y-95253900D03*
%TD*%
%TO.P,AnalogJoystick1,6,vcc*%
%TO.N,VCC*%
X176530000Y-109228900D03*
%TO.P,AnalogJoystick1,5,gnd*%
%TO.N,GROUND*%
X180530000Y-109228900D03*
%TO.P,AnalogJoystick1,4,yout*%
%TO.N,JOYy*%
X178530000Y-109228900D03*
%TO.P,AnalogJoystick1,3,vcc*%
%TO.N,VCC*%
X187380000Y-102253900D03*
%TO.P,AnalogJoystick1,2,gnd*%
%TO.N,GROUND*%
X187380000Y-98253900D03*
%TO.P,AnalogJoystick1,1,xout*%
%TO.N,JOYx*%
X187380000Y-100253900D03*
%TD*%
D12*
%TO.P,J1,13,SHELL2*%
%TO.N,unconnected-(J1-SHELL2-Pad13)*%
X170130000Y-127153900D03*
D13*
%TO.P,J1,12,SHELL1*%
%TO.N,unconnected-(J1-SHELL1-Pad12)*%
X142780000Y-125953900D03*
D14*
%TO.P,J1,11,WRITE_PROTECT*%
%TO.N,unconnected-(J1-WRITE_PROTECT-Pad11)*%
X170120000Y-104753900D03*
D15*
%TO.P,J1,10,CARD_DETECT*%
%TO.N,unconnected-(J1-CARD_DETECT-Pad10)*%
X154200000Y-104753900D03*
%TO.P,J1,9,DAT2*%
%TO.N,unconnected-(J1-DAT2-Pad9)*%
X147500000Y-104753900D03*
%TO.P,J1,8,DAT1*%
%TO.N,unconnected-(J1-DAT1-Pad8)*%
X166630000Y-104753900D03*
%TO.P,J1,7,DAT0*%
%TO.N,MISO*%
X164930000Y-104753900D03*
%TO.P,J1,6,VSS*%
%TO.N,VCC*%
X162500000Y-104753900D03*
%TO.P,J1,5,CLK*%
%TO.N,CLOCK*%
X160000000Y-104753900D03*
%TO.P,J1,4,VDD*%
%TO.N,GROUND*%
X157500000Y-104753900D03*
%TO.P,J1,3,VSS*%
%TO.N,VCC*%
X155800000Y-104753900D03*
%TO.P,J1,2,CMD*%
%TO.N,MOSI*%
X152500000Y-104753900D03*
%TO.P,J1,1,CD/DAT3*%
%TO.N,MMC_CS*%
X150000000Y-104753900D03*
%TD*%
D16*
%TO.P,A1,1,GPIO0*%
%TO.N,unconnected-(A1-GPIO0-Pad1)*%
X166570000Y-37161400D03*
D17*
X165770000Y-37161400D03*
D18*
%TO.P,A1,2,GPIO1*%
%TO.N,unconnected-(A1-GPIO1-Pad2)*%
X166570000Y-39701400D03*
D19*
X165770000Y-39701400D03*
D20*
%TO.P,A1,3,GND*%
%TO.N,GROUND*%
X166570000Y-42241400D03*
D21*
X165770000Y-42241400D03*
D18*
%TO.P,A1,4,GPIO2*%
%TO.N,CLOCK*%
X166570000Y-44781400D03*
D19*
X165770000Y-44781400D03*
D18*
%TO.P,A1,5,GPIO3*%
%TO.N,MOSI*%
X166570000Y-47321400D03*
D19*
X165770000Y-47321400D03*
D18*
%TO.P,A1,6,GPIO4*%
%TO.N,MISO*%
X166570000Y-49861400D03*
D19*
X165770000Y-49861400D03*
D18*
%TO.P,A1,7,GPIO5*%
%TO.N,unconnected-(A1-GPIO5-Pad7)*%
X166570000Y-52401400D03*
D19*
X165770000Y-52401400D03*
D20*
%TO.P,A1,8,GND*%
%TO.N,GROUND*%
X166570000Y-54941400D03*
D21*
X165770000Y-54941400D03*
D18*
%TO.P,A1,9,GPIO6*%
%TO.N,SCR_CS*%
X166570000Y-57481400D03*
D19*
X165770000Y-57481400D03*
D18*
%TO.P,A1,10,GPIO7*%
%TO.N,SCR_DC*%
X166570000Y-60021400D03*
D19*
X165770000Y-60021400D03*
D18*
%TO.P,A1,11,GPIO8*%
%TO.N,SCR_BL*%
X166570000Y-62561400D03*
D19*
X165770000Y-62561400D03*
D18*
%TO.P,A1,12,GPIO9*%
%TO.N,SCR_RST*%
X166570000Y-65101400D03*
D19*
X165770000Y-65101400D03*
D20*
%TO.P,A1,13,GND*%
%TO.N,GROUND*%
X166570000Y-67641400D03*
D21*
X165770000Y-67641400D03*
D18*
%TO.P,A1,14,GPIO10*%
%TO.N,unconnected-(A1-GPIO10-Pad14)*%
X166570000Y-70181400D03*
D19*
X165770000Y-70181400D03*
D18*
%TO.P,A1,15,GPIO11*%
%TO.N,unconnected-(A1-GPIO11-Pad15)*%
X166570000Y-72721400D03*
D19*
X165770000Y-72721400D03*
D18*
%TO.P,A1,16,GPIO12*%
%TO.N,MMC_CS*%
X166570000Y-75261400D03*
D19*
X165770000Y-75261400D03*
D18*
%TO.P,A1,17,GPIO13*%
%TO.N,unconnected-(A1-GPIO13-Pad17)*%
X166570000Y-77801400D03*
D19*
X165770000Y-77801400D03*
D20*
%TO.P,A1,18,GND*%
%TO.N,GROUND*%
X166570000Y-80341400D03*
D21*
X165770000Y-80341400D03*
D18*
%TO.P,A1,19,GPIO14*%
%TO.N,unconnected-(A1-GPIO14-Pad19)*%
X166570000Y-82881400D03*
D19*
X165770000Y-82881400D03*
D18*
%TO.P,A1,20,GPIO15*%
%TO.N,unconnected-(A1-GPIO15-Pad20)*%
X166570000Y-85421400D03*
D19*
X165770000Y-85421400D03*
%TO.P,A1,21,GPIO16*%
%TO.N,unconnected-(A1-GPIO16-Pad21)*%
X147990000Y-85421400D03*
D18*
X147190000Y-85421400D03*
D19*
%TO.P,A1,22,GPIO17*%
%TO.N,unconnected-(A1-GPIO17-Pad22)*%
X147990000Y-82881400D03*
D18*
X147190000Y-82881400D03*
D22*
%TO.P,A1,23,GND*%
%TO.N,GROUND*%
X147990000Y-80341400D03*
D16*
X147190000Y-80341400D03*
D19*
%TO.P,A1,24,GPIO18*%
%TO.N,unconnected-(A1-GPIO18-Pad24)*%
X147990000Y-77801400D03*
D18*
X147190000Y-77801400D03*
D19*
%TO.P,A1,25,GPIO19*%
%TO.N,unconnected-(A1-GPIO19-Pad25)*%
X147990000Y-75261400D03*
D18*
X147190000Y-75261400D03*
D19*
%TO.P,A1,26,GPIO20*%
%TO.N,pinThree*%
X147990000Y-72721400D03*
D18*
X147190000Y-72721400D03*
D19*
%TO.P,A1,27,GPIO21*%
%TO.N,pinTwo*%
X147990000Y-70181400D03*
D18*
X147190000Y-70181400D03*
D22*
%TO.P,A1,28,GND*%
%TO.N,GROUND*%
X147990000Y-67641400D03*
D16*
X147190000Y-67641400D03*
D19*
%TO.P,A1,29,GPIO22*%
%TO.N,pinOne*%
X147990000Y-65101400D03*
D18*
X147190000Y-65101400D03*
D19*
%TO.P,A1,30,RUN*%
%TO.N,unconnected-(A1-RUN-Pad30)*%
X147990000Y-62561400D03*
D18*
X147190000Y-62561400D03*
D19*
%TO.P,A1,31,GPIO26_ADC0*%
%TO.N,JOYy*%
X147990000Y-60021400D03*
D18*
X147190000Y-60021400D03*
D19*
%TO.P,A1,32,GPIO27_ADC1*%
%TO.N,JOYx*%
X147990000Y-57481400D03*
D18*
X147190000Y-57481400D03*
D22*
%TO.P,A1,33,AGND*%
%TO.N,unconnected-(A1-AGND-Pad33)*%
X147990000Y-54941400D03*
D16*
X147190000Y-54941400D03*
D19*
%TO.P,A1,34,GPIO28_ADC2*%
%TO.N,unconnected-(A1-GPIO28_ADC2-Pad34)*%
X147990000Y-52401400D03*
D18*
X147190000Y-52401400D03*
D19*
%TO.P,A1,35,ADC_VREF*%
%TO.N,unconnected-(A1-ADC_VREF-Pad35)*%
X147990000Y-49861400D03*
D18*
X147190000Y-49861400D03*
D19*
%TO.P,A1,36,3V3*%
%TO.N,VCC*%
X147990000Y-47321400D03*
D18*
X147190000Y-47321400D03*
D19*
%TO.P,A1,37,3V3_EN*%
%TO.N,unconnected-(A1-3V3_EN-Pad37)*%
X147990000Y-44781400D03*
D18*
X147190000Y-44781400D03*
D22*
%TO.P,A1,38,GND*%
%TO.N,GROUND*%
X147990000Y-42241400D03*
D16*
X147190000Y-42241400D03*
D19*
%TO.P,A1,39,VSYS*%
%TO.N,unconnected-(A1-VSYS-Pad39)*%
X147990000Y-39701400D03*
D18*
X147190000Y-39701400D03*
D19*
%TO.P,A1,40,VBUS*%
%TO.N,unconnected-(A1-VBUS-Pad40)*%
X147990000Y-37161400D03*
D18*
X147190000Y-37161400D03*
%TD*%
D23*
%TO.N,SCR_CS*%
X184199000Y-56560200D03*
%TO.N,MISO*%
X167713600Y-103292500D03*
%TO.N,pinThree*%
X131566300Y-75080800D03*
%TO.N,JOYy*%
X178379600Y-61291300D03*
%TO.N,JOYx*%
X142377100Y-95221400D03*
%TO.N,CLOCK*%
X183650500Y-44781400D03*
X179173800Y-106260600D03*
%TO.N,SCR_BL*%
X186000000Y-53476700D03*
%TO.N,MOSI*%
X182297000Y-56556800D03*
X179857000Y-101728300D03*
%TO.N,SCR_RST*%
X187562000Y-56365400D03*
%TO.N,MMC_CS*%
X164475100Y-98590700D03*
%TO.N,SCR_DC*%
X184407300Y-57481400D03*
%TO.N,GROUND*%
X187406100Y-82133700D03*
X182528600Y-98253900D03*
%TD*%
D24*
%TO.N,unconnected-(A1-GPIO1-Pad2)*%
X165770000Y-39701400D02*
X166570000Y-39701400D01*
%TO.N,unconnected-(A1-GPIO15-Pad20)*%
X165770000Y-85421400D02*
X166570000Y-85421400D01*
%TO.N,unconnected-(A1-GPIO16-Pad21)*%
X147190000Y-85421400D02*
X147990000Y-85421400D01*
%TO.N,SCR_CS*%
X165770000Y-57481400D02*
X166570000Y-57481400D01*
X183277800Y-57481400D02*
X184199000Y-56560200D01*
X166570000Y-57481400D02*
X183277800Y-57481400D01*
%TO.N,MISO*%
X165770000Y-49861400D02*
X166570000Y-49861400D01*
X166117500Y-103292500D02*
X167713600Y-103292500D01*
X164930000Y-104480000D02*
X166117500Y-103292500D01*
X164930000Y-104753900D02*
X164930000Y-104480000D01*
%TO.N,pinThree*%
X147990000Y-72721400D02*
X147190000Y-72721400D01*
X135020400Y-75080800D02*
X131566300Y-75080800D01*
X137379800Y-72721400D02*
X135020400Y-75080800D01*
X147190000Y-72721400D02*
X137379800Y-72721400D01*
%TO.N,pinTwo*%
X147190000Y-70181400D02*
X147990000Y-70181400D01*
%TO.N,unconnected-(A1-GPIO18-Pad24)*%
X147190000Y-77801400D02*
X147990000Y-77801400D01*
%TO.N,unconnected-(A1-GPIO14-Pad19)*%
X165770000Y-82881400D02*
X166570000Y-82881400D01*
%TO.N,JOYy*%
X147190000Y-60021400D02*
X147990000Y-60021400D01*
X149259900Y-61291300D02*
X178379600Y-61291300D01*
X147990000Y-60021400D02*
X149259900Y-61291300D01*
%TO.N,unconnected-(A1-AGND-Pad33)*%
X147190000Y-54941400D02*
X147990000Y-54941400D01*
%TO.N,unconnected-(A1-GPIO0-Pad1)*%
X165770000Y-37161400D02*
X166570000Y-37161400D01*
%TO.N,JOYx*%
X147190000Y-57481400D02*
X147990000Y-57481400D01*
X165863000Y-95221400D02*
X142377100Y-95221400D01*
X170895500Y-100253900D02*
X165863000Y-95221400D01*
X187380000Y-100253900D02*
X170895500Y-100253900D01*
%TO.N,unconnected-(A1-GPIO28_ADC2-Pad34)*%
X147190000Y-52401400D02*
X147990000Y-52401400D01*
%TO.N,CLOCK*%
X165770000Y-44781400D02*
X166570000Y-44781400D01*
X166570000Y-44781400D02*
X183650500Y-44781400D01*
X161506700Y-106260600D02*
X179173800Y-106260600D01*
X160000000Y-104753900D02*
X161506700Y-106260600D01*
%TO.N,SCR_BL*%
X165770000Y-62561400D02*
X166570000Y-62561400D01*
X186000000Y-56988200D02*
X186000000Y-53476700D01*
X180426800Y-62561400D02*
X186000000Y-56988200D01*
X166570000Y-62561400D02*
X180426800Y-62561400D01*
%TO.N,unconnected-(A1-VBUS-Pad40)*%
X147190000Y-37161400D02*
X147990000Y-37161400D01*
%TO.N,unconnected-(A1-GPIO17-Pad22)*%
X147190000Y-82881400D02*
X147990000Y-82881400D01*
%TO.N,unconnected-(A1-RUN-Pad30)*%
X147190000Y-62561400D02*
X147990000Y-62561400D01*
%TO.N,MOSI*%
X165770000Y-47321400D02*
X166570000Y-47321400D01*
X152500000Y-104480700D02*
X152500000Y-104753900D01*
X155252400Y-101728300D02*
X152500000Y-104480700D01*
X179857000Y-101728300D02*
X155252400Y-101728300D01*
X175933700Y-56556800D02*
X182297000Y-56556800D01*
X166698300Y-47321400D02*
X175933700Y-56556800D01*
X166570000Y-47321400D02*
X166698300Y-47321400D01*
%TO.N,unconnected-(A1-ADC_VREF-Pad35)*%
X147190000Y-49861400D02*
X147990000Y-49861400D01*
%TO.N,SCR_RST*%
X165770000Y-65101400D02*
X166570000Y-65101400D01*
X178826000Y-65101400D02*
X187562000Y-56365400D01*
X166570000Y-65101400D02*
X178826000Y-65101400D01*
%TO.N,pinOne*%
X147190000Y-65101400D02*
X147990000Y-65101400D01*
%TO.N,unconnected-(A1-GPIO10-Pad14)*%
X165770000Y-70181400D02*
X166570000Y-70181400D01*
%TO.N,unconnected-(A1-GPIO13-Pad17)*%
X165770000Y-77801400D02*
X166570000Y-77801400D01*
%TO.N,unconnected-(A1-GPIO5-Pad7)*%
X165770000Y-52401400D02*
X166570000Y-52401400D01*
%TO.N,MMC_CS*%
X165770000Y-75261400D02*
X166570000Y-75261400D01*
X156163200Y-98590700D02*
X164475100Y-98590700D01*
X150000000Y-104753900D02*
X156163200Y-98590700D01*
%TO.N,VCC*%
X147190000Y-47321400D02*
X147990000Y-47321400D01*
X187103200Y-102530700D02*
X187380000Y-102253900D01*
X164723200Y-102530700D02*
X187103200Y-102530700D01*
X162500000Y-104753900D02*
X164723200Y-102530700D01*
X155800000Y-104491200D02*
X155800000Y-104753900D01*
X156998000Y-103293200D02*
X155800000Y-104491200D01*
X161039300Y-103293200D02*
X156998000Y-103293200D01*
X162500000Y-104753900D02*
X161039300Y-103293200D01*
X155800000Y-104958600D02*
X155859200Y-105017700D01*
X155800000Y-104753900D02*
X155800000Y-104958600D01*
X160070300Y-109228900D02*
X176530000Y-109228900D01*
X155859200Y-105017700D02*
X160070300Y-109228900D01*
X154208000Y-106668900D02*
X129474300Y-106668900D01*
X155859200Y-105017700D02*
X154208000Y-106668900D01*
X129474300Y-107659600D02*
X127380000Y-109753900D01*
X129474300Y-106668900D02*
X129474300Y-107659600D01*
X129474300Y-101214800D02*
X129474300Y-106668900D01*
X131919100Y-101214800D02*
X129474300Y-101214800D01*
X133380000Y-99753900D02*
X131919100Y-101214800D01*
X122340900Y-101214800D02*
X120880000Y-99753900D01*
X129474300Y-101214800D02*
X122340900Y-101214800D01*
%TO.N,unconnected-(A1-GPIO19-Pad25)*%
X147190000Y-75261400D02*
X147990000Y-75261400D01*
%TO.N,SCR_DC*%
X165770000Y-60021400D02*
X166570000Y-60021400D01*
X181867300Y-60021400D02*
X184407300Y-57481400D01*
X166570000Y-60021400D02*
X181867300Y-60021400D01*
%TO.N,GROUND*%
X147190000Y-42241400D02*
X147990000Y-42241400D01*
X147190000Y-67641400D02*
X147990000Y-67641400D01*
X147190000Y-80341400D02*
X147990000Y-80341400D01*
X165770000Y-80341400D02*
X166570000Y-80341400D01*
X164965800Y-68445600D02*
X165770000Y-67641400D01*
X148794200Y-68445600D02*
X164965800Y-68445600D01*
X147990000Y-67641400D02*
X148794200Y-68445600D01*
X165770000Y-67641400D02*
X166570000Y-67641400D01*
X165770000Y-54941400D02*
X166570000Y-54941400D01*
X147990000Y-42241400D02*
X165770000Y-42241400D01*
X165770000Y-42241400D02*
X166570000Y-42241400D01*
X178331200Y-107030100D02*
X180530000Y-109228900D01*
X159776200Y-107030100D02*
X178331200Y-107030100D01*
X157500000Y-104753900D02*
X159776200Y-107030100D01*
X185613800Y-80341400D02*
X187406100Y-82133700D01*
X166570000Y-80341400D02*
X185613800Y-80341400D01*
X187380000Y-98253900D02*
X182528600Y-98253900D01*
%TO.N,unconnected-(A1-VSYS-Pad39)*%
X147190000Y-39701400D02*
X147990000Y-39701400D01*
%TO.N,unconnected-(A1-3V3_EN-Pad37)*%
X147190000Y-44781400D02*
X147990000Y-44781400D01*
%TO.N,unconnected-(A1-GPIO11-Pad15)*%
X165770000Y-72721400D02*
X166570000Y-72721400D01*
%TD*%
M02*
