%TF.GenerationSoftware,KiCad,Pcbnew,9.0.0*%
%TF.CreationDate,2025-03-22T03:19:02+00:00*%
%TF.ProjectId,PicoConsole,5069636f-436f-46e7-936f-6c652e6b6963,1*%
%TF.SameCoordinates,Original*%
%TF.FileFunction,Soldermask,Bot*%
%TF.FilePolarity,Negative*%
%FSLAX46Y46*%
G04 Gerber Fmt 4.6, Leading zero omitted, Abs format (unit mm)*
G04 Created by KiCad (PCBNEW 9.0.0) date 2025-03-22 03:19:02*
%MOMM*%
%LPD*%
G01*
G04 APERTURE LIST*
G04 Aperture macros list*
%AMRoundRect*
0 Rectangle with rounded corners*
0 $1 Rounding radius*
0 $2 $3 $4 $5 $6 $7 $8 $9 X,Y pos of 4 corners*
0 Add a 4 corners polygon primitive as box body*
4,1,4,$2,$3,$4,$5,$6,$7,$8,$9,$2,$3,0*
0 Add four circle primitives for the rounded corners*
1,1,$1+$1,$2,$3*
1,1,$1+$1,$4,$5*
1,1,$1+$1,$6,$7*
1,1,$1+$1,$8,$9*
0 Add four rect primitives between the rounded corners*
20,1,$1+$1,$2,$3,$4,$5,0*
20,1,$1+$1,$4,$5,$6,$7,0*
20,1,$1+$1,$6,$7,$8,$9,0*
20,1,$1+$1,$8,$9,$2,$3,0*%
%AMFreePoly0*
4,1,37,0.800000,0.796148,0.878414,0.796148,1.032228,0.765552,1.177117,0.705537,1.307515,0.618408,1.418408,0.507515,1.505537,0.377117,1.565552,0.232228,1.596148,0.078414,1.596148,-0.078414,1.565552,-0.232228,1.505537,-0.377117,1.418408,-0.507515,1.307515,-0.618408,1.177117,-0.705537,1.032228,-0.765552,0.878414,-0.796148,0.800000,-0.796148,0.800000,-0.800000,-1.400000,-0.800000,
-1.403843,-0.796157,-1.439018,-0.796157,-1.511114,-0.766294,-1.566294,-0.711114,-1.596157,-0.639018,-1.596157,-0.603843,-1.600000,-0.600000,-1.600000,0.600000,-1.596157,0.603843,-1.596157,0.639018,-1.566294,0.711114,-1.511114,0.766294,-1.439018,0.796157,-1.403843,0.796157,-1.400000,0.800000,0.800000,0.800000,0.800000,0.796148,0.800000,0.796148,$1*%
%AMFreePoly1*
4,1,37,1.403843,0.796157,1.439018,0.796157,1.511114,0.766294,1.566294,0.711114,1.596157,0.639018,1.596157,0.603843,1.600000,0.600000,1.600000,-0.600000,1.596157,-0.603843,1.596157,-0.639018,1.566294,-0.711114,1.511114,-0.766294,1.439018,-0.796157,1.403843,-0.796157,1.400000,-0.800000,-0.800000,-0.800000,-0.800000,-0.796148,-0.878414,-0.796148,-1.032228,-0.765552,-1.177117,-0.705537,
-1.307515,-0.618408,-1.418408,-0.507515,-1.505537,-0.377117,-1.565552,-0.232228,-1.596148,-0.078414,-1.596148,0.078414,-1.565552,0.232228,-1.505537,0.377117,-1.418408,0.507515,-1.307515,0.618408,-1.177117,0.705537,-1.032228,0.765552,-0.878414,0.796148,-0.800000,0.796148,-0.800000,0.800000,1.400000,0.800000,1.403843,0.796157,1.403843,0.796157,$1*%
%AMFreePoly2*
4,1,37,0.603843,0.796157,0.639018,0.796157,0.711114,0.766294,0.766294,0.711114,0.796157,0.639018,0.796157,0.603843,0.800000,0.600000,0.800000,-0.600000,0.796157,-0.603843,0.796157,-0.639018,0.766294,-0.711114,0.711114,-0.766294,0.639018,-0.796157,0.603843,-0.796157,0.600000,-0.800000,0.000000,-0.800000,0.000000,-0.796148,-0.078414,-0.796148,-0.232228,-0.765552,-0.377117,-0.705537,
-0.507515,-0.618408,-0.618408,-0.507515,-0.705537,-0.377117,-0.765552,-0.232228,-0.796148,-0.078414,-0.796148,0.078414,-0.765552,0.232228,-0.705537,0.377117,-0.618408,0.507515,-0.507515,0.618408,-0.377117,0.705537,-0.232228,0.765552,-0.078414,0.796148,0.000000,0.796148,0.000000,0.800000,0.600000,0.800000,0.603843,0.796157,0.603843,0.796157,$1*%
%AMFreePoly3*
4,1,37,0.000000,0.796148,0.078414,0.796148,0.232228,0.765552,0.377117,0.705537,0.507515,0.618408,0.618408,0.507515,0.705537,0.377117,0.765552,0.232228,0.796148,0.078414,0.796148,-0.078414,0.765552,-0.232228,0.705537,-0.377117,0.618408,-0.507515,0.507515,-0.618408,0.377117,-0.705537,0.232228,-0.765552,0.078414,-0.796148,0.000000,-0.796148,0.000000,-0.800000,-0.600000,-0.800000,
-0.603843,-0.796157,-0.639018,-0.796157,-0.711114,-0.766294,-0.766294,-0.711114,-0.796157,-0.639018,-0.796157,-0.603843,-0.800000,-0.600000,-0.800000,0.600000,-0.796157,0.603843,-0.796157,0.639018,-0.766294,0.711114,-0.711114,0.766294,-0.639018,0.796157,-0.603843,0.796157,-0.600000,0.800000,0.000000,0.800000,0.000000,0.796148,0.000000,0.796148,$1*%
G04 Aperture macros list end*
%ADD10C,1.905000*%
%ADD11C,4.000000*%
%ADD12RoundRect,0.249900X0.600100X0.950100X-0.600100X0.950100X-0.600100X-0.950100X0.600100X-0.950100X0*%
%ADD13RoundRect,0.250200X0.649800X0.949800X-0.649800X0.949800X-0.649800X-0.949800X0.649800X-0.949800X0*%
%ADD14RoundRect,0.249900X0.100100X0.750100X-0.100100X0.750100X-0.100100X-0.750100X0.100100X-0.750100X0*%
%ADD15RoundRect,0.250400X0.149600X0.749600X-0.149600X0.749600X-0.149600X-0.749600X0.149600X-0.749600X0*%
%ADD16C,1.500000*%
%ADD17C,2.200000*%
%ADD18C,1.850000*%
%ADD19FreePoly0,180.000000*%
%ADD20RoundRect,0.200000X0.600000X0.600000X-0.600000X0.600000X-0.600000X-0.600000X0.600000X-0.600000X0*%
%ADD21RoundRect,0.800000X0.800000X0.000010X-0.800000X0.000010X-0.800000X-0.000010X0.800000X-0.000010X0*%
%ADD22C,1.600000*%
%ADD23FreePoly1,180.000000*%
%ADD24FreePoly2,180.000000*%
%ADD25FreePoly3,180.000000*%
G04 APERTURE END LIST*
D10*
%TO.C,but2*%
X133880000Y-109753900D03*
X133880000Y-105253900D03*
X127380000Y-109753900D03*
X127380000Y-105253900D03*
%TD*%
%TO.C,but1*%
X127380000Y-99753900D03*
X127380000Y-95253900D03*
X120880000Y-99753900D03*
X120880000Y-95253900D03*
%TD*%
D11*
%TO.C,e*%
X134030000Y-72603900D03*
%TD*%
%TO.C,REF\u002A\u002A*%
X179730000Y-50903900D03*
%TD*%
D10*
%TO.C,but3*%
X139880000Y-99753900D03*
X139880000Y-95253900D03*
X133380000Y-99753900D03*
X133380000Y-95253900D03*
%TD*%
%TO.C,AnalogJoystick1*%
X176530000Y-109228900D03*
X180530000Y-109228900D03*
X178530000Y-109228900D03*
X187380000Y-102253900D03*
X187380000Y-98253900D03*
X187380000Y-100253900D03*
%TD*%
D12*
%TO.C,J1*%
X170130000Y-127153900D03*
D13*
X142780000Y-125953900D03*
D14*
X170120000Y-104753900D03*
D15*
X154200000Y-104753900D03*
X147500000Y-104753900D03*
X166630000Y-104753900D03*
X164930000Y-104753900D03*
X162500000Y-104753900D03*
X160000000Y-104753900D03*
X157500000Y-104753900D03*
X155800000Y-104753900D03*
X152500000Y-104753900D03*
X150000000Y-104753900D03*
D16*
X144780000Y-129253900D03*
X168980000Y-129253900D03*
%TD*%
D17*
%TO.C,A1*%
X159605000Y-37291400D03*
D18*
X159305000Y-40321400D03*
X154455000Y-40321400D03*
D17*
X154155000Y-37291400D03*
D19*
X166570000Y-37161400D03*
D20*
X165770000Y-37161400D03*
D21*
X166570000Y-39701400D03*
D22*
X165770000Y-39701400D03*
D23*
X166570000Y-42241400D03*
D24*
X165770000Y-42241400D03*
D21*
X166570000Y-44781400D03*
D22*
X165770000Y-44781400D03*
D21*
X166570000Y-47321400D03*
D22*
X165770000Y-47321400D03*
D21*
X166570000Y-49861400D03*
D22*
X165770000Y-49861400D03*
D21*
X166570000Y-52401400D03*
D22*
X165770000Y-52401400D03*
D23*
X166570000Y-54941400D03*
D24*
X165770000Y-54941400D03*
D21*
X166570000Y-57481400D03*
D22*
X165770000Y-57481400D03*
D21*
X166570000Y-60021400D03*
D22*
X165770000Y-60021400D03*
D21*
X166570000Y-62561400D03*
D22*
X165770000Y-62561400D03*
D21*
X166570000Y-65101400D03*
D22*
X165770000Y-65101400D03*
D23*
X166570000Y-67641400D03*
D24*
X165770000Y-67641400D03*
D21*
X166570000Y-70181400D03*
D22*
X165770000Y-70181400D03*
D21*
X166570000Y-72721400D03*
D22*
X165770000Y-72721400D03*
D21*
X166570000Y-75261400D03*
D22*
X165770000Y-75261400D03*
D21*
X166570000Y-77801400D03*
D22*
X165770000Y-77801400D03*
D23*
X166570000Y-80341400D03*
D24*
X165770000Y-80341400D03*
D21*
X166570000Y-82881400D03*
D22*
X165770000Y-82881400D03*
D21*
X166570000Y-85421400D03*
D22*
X165770000Y-85421400D03*
X147990000Y-85421400D03*
D21*
X147190000Y-85421400D03*
D22*
X147990000Y-82881400D03*
D21*
X147190000Y-82881400D03*
D25*
X147990000Y-80341400D03*
D19*
X147190000Y-80341400D03*
D22*
X147990000Y-77801400D03*
D21*
X147190000Y-77801400D03*
D22*
X147990000Y-75261400D03*
D21*
X147190000Y-75261400D03*
D22*
X147990000Y-72721400D03*
D21*
X147190000Y-72721400D03*
D22*
X147990000Y-70181400D03*
D21*
X147190000Y-70181400D03*
D25*
X147990000Y-67641400D03*
D19*
X147190000Y-67641400D03*
D22*
X147990000Y-65101400D03*
D21*
X147190000Y-65101400D03*
D22*
X147990000Y-62561400D03*
D21*
X147190000Y-62561400D03*
D22*
X147990000Y-60021400D03*
D21*
X147190000Y-60021400D03*
D22*
X147990000Y-57481400D03*
D21*
X147190000Y-57481400D03*
D25*
X147990000Y-54941400D03*
D19*
X147190000Y-54941400D03*
D22*
X147990000Y-52401400D03*
D21*
X147190000Y-52401400D03*
D22*
X147990000Y-49861400D03*
D21*
X147190000Y-49861400D03*
D22*
X147990000Y-47321400D03*
D21*
X147190000Y-47321400D03*
D22*
X147990000Y-44781400D03*
D21*
X147190000Y-44781400D03*
D25*
X147990000Y-42241400D03*
D19*
X147190000Y-42241400D03*
D22*
X147990000Y-39701400D03*
D21*
X147190000Y-39701400D03*
D22*
X147990000Y-37161400D03*
D21*
X147190000Y-37161400D03*
%TD*%
M02*
