M48
; DRILL file {KiCad 9.0.0} date 2025-03-22T03:19:09+0000
; FORMAT={-:-/ absolute / metric / decimal}
; #@! TF.CreationDate,2025-03-22T03:19:09+00:00
; #@! TF.GenerationSoftware,Kicad,Pcbnew,9.0.0
; #@! TF.FileFunction,Plated,1,2,PTH
FMAT,2
METRIC
; #@! TA.AperFunction,Plated,PTH,ViaDrill
T1C0.300
; #@! TA.AperFunction,Plated,PTH,ComponentDrill
T2C0.900
; #@! TA.AperFunction,Plated,PTH,ComponentDrill
T3C1.000
; #@! TA.AperFunction,Plated,PTH,ComponentDrill
T4C3.400
%
G90
G05
T1
X131.566Y-75.081
X142.377Y-95.221
X164.475Y-98.591
X167.714Y-103.292
X178.38Y-61.291
X179.174Y-106.261
X179.857Y-101.728
X182.297Y-56.557
X182.529Y-98.254
X183.65Y-44.781
X184.199Y-56.56
X184.407Y-57.481
X186.0Y-53.477
X187.406Y-82.134
X187.562Y-56.365
T2
X120.88Y-95.254
X120.88Y-99.754
X127.38Y-95.254
X127.38Y-99.754
X127.38Y-105.254
X127.38Y-109.754
X133.38Y-95.254
X133.38Y-99.754
X133.88Y-105.254
X133.88Y-109.754
X139.88Y-95.254
X139.88Y-99.754
X176.53Y-109.229
X178.53Y-109.229
X180.53Y-109.229
X187.38Y-98.254
X187.38Y-100.254
X187.38Y-102.254
T3
X147.99Y-37.161
X147.99Y-39.701
X147.99Y-42.241
X147.99Y-44.781
X147.99Y-47.321
X147.99Y-49.861
X147.99Y-52.401
X147.99Y-54.941
X147.99Y-57.481
X147.99Y-60.021
X147.99Y-62.561
X147.99Y-65.101
X147.99Y-67.641
X147.99Y-70.181
X147.99Y-72.721
X147.99Y-75.261
X147.99Y-77.801
X147.99Y-80.341
X147.99Y-82.881
X147.99Y-85.421
X165.77Y-37.161
X165.77Y-39.701
X165.77Y-42.241
X165.77Y-44.781
X165.77Y-47.321
X165.77Y-49.861
X165.77Y-52.401
X165.77Y-54.941
X165.77Y-57.481
X165.77Y-60.021
X165.77Y-62.561
X165.77Y-65.101
X165.77Y-67.641
X165.77Y-70.181
X165.77Y-72.721
X165.77Y-75.261
X165.77Y-77.801
X165.77Y-80.341
X165.77Y-82.881
X165.77Y-85.421
T4
X134.03Y-72.604
X179.73Y-50.904
M30
