%TF.GenerationSoftware,KiCad,Pcbnew,9.0.0*%
%TF.CreationDate,2025-03-20T22:54:18+00:00*%
%TF.ProjectId,PicoConsole,5069636f-436f-46e7-936f-6c652e6b6963,rev?*%
%TF.SameCoordinates,Original*%
%TF.FileFunction,Legend,Bot*%
%TF.FilePolarity,Positive*%
%FSLAX46Y46*%
G04 Gerber Fmt 4.6, Leading zero omitted, Abs format (unit mm)*
G04 Created by KiCad (PCBNEW 9.0.0) date 2025-03-20 22:54:18*
%MOMM*%
%LPD*%
G01*
G04 APERTURE LIST*
%ADD10C,0.100000*%
%ADD11C,0.150000*%
%ADD12C,0.120000*%
G04 APERTURE END LIST*
D10*
X105333333Y-107457419D02*
X105333333Y-108171704D01*
X105333333Y-108171704D02*
X105380952Y-108314561D01*
X105380952Y-108314561D02*
X105476190Y-108409800D01*
X105476190Y-108409800D02*
X105619047Y-108457419D01*
X105619047Y-108457419D02*
X105714285Y-108457419D01*
X104333333Y-108457419D02*
X104904761Y-108457419D01*
X104619047Y-108457419D02*
X104619047Y-107457419D01*
X104619047Y-107457419D02*
X104714285Y-107600276D01*
X104714285Y-107600276D02*
X104809523Y-107695514D01*
X104809523Y-107695514D02*
X104904761Y-107743133D01*
D11*
X92963339Y-77471604D02*
X92487149Y-77471604D01*
X93058577Y-77757319D02*
X92725244Y-76757319D01*
X92725244Y-76757319D02*
X92391911Y-77757319D01*
X91534768Y-77757319D02*
X92106196Y-77757319D01*
X91820482Y-77757319D02*
X91820482Y-76757319D01*
X91820482Y-76757319D02*
X91915720Y-76900176D01*
X91915720Y-76900176D02*
X92010958Y-76995414D01*
X92010958Y-76995414D02*
X92106196Y-77043033D01*
D12*
%TO.C,J1*%
X89900000Y-96800000D02*
X95000000Y-96800000D01*
X89900000Y-106600000D02*
X89900000Y-96800000D01*
X90100000Y-106600000D02*
X89900000Y-106600000D01*
X90100000Y-106600000D02*
X90100000Y-115800000D01*
X90100000Y-118600000D02*
X90100000Y-126200000D01*
X90100000Y-126200000D02*
X93900000Y-126200000D01*
X94600000Y-125500000D02*
X93900000Y-126200000D01*
X94600000Y-125500000D02*
X94600000Y-113600000D01*
X96300000Y-96800000D02*
X97500000Y-96800000D01*
X96500000Y-111700000D02*
X94600000Y-113600000D01*
X98800000Y-96800000D02*
X100000000Y-96800000D01*
X101300000Y-96800000D02*
X101700000Y-96800000D01*
X103000000Y-96800000D02*
X103300000Y-96800000D01*
X104600000Y-96800000D02*
X105000000Y-96800000D01*
X106300000Y-96800000D02*
X107500000Y-96800000D01*
X108800000Y-96800000D02*
X110000000Y-96800000D01*
X111300000Y-96800000D02*
X112400000Y-96800000D01*
X113500000Y-111700000D02*
X96500000Y-111700000D01*
X113500000Y-111700000D02*
X115400000Y-113600000D01*
X113700000Y-96800000D02*
X114100000Y-96800000D01*
X115400000Y-96800000D02*
X117700000Y-96800000D01*
X115400000Y-125500000D02*
X115400000Y-113600000D01*
X115400000Y-125500000D02*
X116100000Y-126200000D01*
X118800000Y-96800000D02*
X119000000Y-96800000D01*
X119000000Y-96800000D02*
X119000000Y-117000000D01*
X119000000Y-119800000D02*
X119000000Y-126200000D01*
X119000000Y-126200000D02*
X116100000Y-126200000D01*
%TO.C,A1*%
X94390000Y-29467500D02*
X94390000Y-29887500D01*
X94390000Y-32007500D02*
X94390000Y-32427500D01*
X94390000Y-34547500D02*
X94390000Y-34967500D01*
X94390000Y-37087500D02*
X94390000Y-37507500D01*
X94390000Y-39627500D02*
X94390000Y-40047500D01*
X94390000Y-42167500D02*
X94390000Y-42587500D01*
X94390000Y-44707500D02*
X94390000Y-45127500D01*
X94390000Y-47247500D02*
X94390000Y-47667500D01*
X94390000Y-49787500D02*
X94390000Y-50207500D01*
X94390000Y-52327500D02*
X94390000Y-52747500D01*
X94390000Y-54867500D02*
X94390000Y-55287500D01*
X94390000Y-57407500D02*
X94390000Y-57827500D01*
X94390000Y-59947500D02*
X94390000Y-60367500D01*
X94390000Y-62487500D02*
X94390000Y-62907500D01*
X94390000Y-65027500D02*
X94390000Y-65447500D01*
X94390000Y-67567500D02*
X94390000Y-67987500D01*
X94390000Y-70107500D02*
X94390000Y-70527500D01*
X94390000Y-72647500D02*
X94390000Y-73067500D01*
X94390000Y-75187500D02*
X94390000Y-75607500D01*
X94730000Y-27347563D02*
X94730000Y-26990500D01*
X94730000Y-29467500D02*
X94730000Y-29887500D01*
X94730000Y-32007500D02*
X94730000Y-32427500D01*
X94730000Y-34547500D02*
X94730000Y-34967500D01*
X94730000Y-37087500D02*
X94730000Y-37507500D01*
X94730000Y-39627500D02*
X94730000Y-40047500D01*
X94730000Y-42167500D02*
X94730000Y-42587500D01*
X94730000Y-44707500D02*
X94730000Y-45127500D01*
X94730000Y-47247500D02*
X94730000Y-47667500D01*
X94730000Y-49787500D02*
X94730000Y-50207500D01*
X94730000Y-52327500D02*
X94730000Y-52747500D01*
X94730000Y-54867500D02*
X94730000Y-55287500D01*
X94730000Y-57407500D02*
X94730000Y-57827500D01*
X94730000Y-59947500D02*
X94730000Y-60367500D01*
X94730000Y-62487500D02*
X94730000Y-62907500D01*
X94730000Y-65027500D02*
X94730000Y-65447500D01*
X94730000Y-67567500D02*
X94730000Y-67987500D01*
X94730000Y-70107500D02*
X94730000Y-70527500D01*
X94730000Y-72647500D02*
X94730000Y-73067500D01*
X94730000Y-75187500D02*
X94730000Y-75607500D01*
X94730000Y-77727437D02*
X94730000Y-78084500D01*
X95000000Y-26927500D02*
X97490000Y-26927500D01*
X97490000Y-26927500D02*
X97490000Y-27841020D01*
X97490000Y-30233980D02*
X97490000Y-74841020D01*
X97490000Y-77233980D02*
X97490000Y-78147500D01*
X98837939Y-26927500D02*
X97490000Y-26927500D01*
X98837939Y-78147500D02*
X95000000Y-78147500D01*
X99762061Y-78147500D02*
X101400000Y-78147500D01*
X100765000Y-26927500D02*
X99762061Y-26927500D01*
X101100000Y-26927500D02*
X101100000Y-27843500D01*
X101100000Y-30231500D02*
X101100000Y-31447500D01*
X101396090Y-31447500D02*
X101100000Y-31447500D01*
X101400000Y-78147500D02*
X108600000Y-78147500D01*
X106246090Y-31447500D02*
X103753910Y-31447500D01*
X108600000Y-78147500D02*
X110237939Y-78147500D01*
X108900000Y-26927500D02*
X108900000Y-27843500D01*
X108900000Y-30231500D02*
X108900000Y-31447500D01*
X108900000Y-31447500D02*
X108603910Y-31447500D01*
X109235000Y-26927500D02*
X100765000Y-26927500D01*
X110237939Y-26927500D02*
X109235000Y-26927500D01*
X112510000Y-26927500D02*
X111162060Y-26927500D01*
X112510000Y-26927500D02*
X112510000Y-27841020D01*
X112510000Y-30233980D02*
X112510000Y-74841020D01*
X112510000Y-77233980D02*
X112510000Y-78147500D01*
X115000000Y-26927500D02*
X112510000Y-26927500D01*
X115000000Y-78147500D02*
X111162061Y-78147500D01*
X115270000Y-27347563D02*
X115270000Y-26990500D01*
X115270000Y-29467500D02*
X115270000Y-29887500D01*
X115270000Y-32007500D02*
X115270000Y-32427500D01*
X115270000Y-34547500D02*
X115270000Y-34967500D01*
X115270000Y-37087500D02*
X115270000Y-37507500D01*
X115270000Y-39627500D02*
X115270000Y-40047500D01*
X115270000Y-42167500D02*
X115270000Y-42587500D01*
X115270000Y-44707500D02*
X115270000Y-45127500D01*
X115270000Y-47247500D02*
X115270000Y-47667500D01*
X115270000Y-49787500D02*
X115270000Y-50207500D01*
X115270000Y-52327500D02*
X115270000Y-52747500D01*
X115270000Y-54867500D02*
X115270000Y-55287500D01*
X115270000Y-57407500D02*
X115270000Y-57827500D01*
X115270000Y-59947500D02*
X115270000Y-60367500D01*
X115270000Y-62487500D02*
X115270000Y-62907500D01*
X115270000Y-65027500D02*
X115270000Y-65447500D01*
X115270000Y-67567500D02*
X115270000Y-67987500D01*
X115270000Y-70107500D02*
X115270000Y-70527500D01*
X115270000Y-72647500D02*
X115270000Y-73067500D01*
X115270000Y-75187500D02*
X115270000Y-75607500D01*
X115270000Y-77727437D02*
X115270000Y-78084500D01*
X115579676Y-27347500D02*
X116090000Y-27347500D01*
X115610000Y-29467500D02*
X115610000Y-29887500D01*
X115610000Y-29467500D02*
X116090000Y-29467500D01*
X115610000Y-32007500D02*
X115610000Y-32427500D01*
X115610000Y-34547500D02*
X115610000Y-34967500D01*
X115610000Y-37087500D02*
X115610000Y-37507500D01*
X115610000Y-39627500D02*
X115610000Y-40047500D01*
X115610000Y-42167500D02*
X115610000Y-42587500D01*
X115610000Y-44707500D02*
X115610000Y-45127500D01*
X115610000Y-47247500D02*
X115610000Y-47667500D01*
X115610000Y-49787500D02*
X115610000Y-50207500D01*
X115610000Y-52327500D02*
X115610000Y-52747500D01*
X115610000Y-54867500D02*
X115610000Y-55287500D01*
X115610000Y-57407500D02*
X115610000Y-57827500D01*
X115610000Y-59947500D02*
X115610000Y-60367500D01*
X115610000Y-62487500D02*
X115610000Y-62907500D01*
X115610000Y-65027500D02*
X115610000Y-65447500D01*
X115610000Y-67567500D02*
X115610000Y-67987500D01*
X115610000Y-70107500D02*
X115610000Y-70527500D01*
X115610000Y-72647500D02*
X115610000Y-73067500D01*
X115610000Y-75187500D02*
X115610000Y-75607500D01*
X94420324Y-27347563D02*
G75*
G02*
X95000000Y-26927500I579676J-189937D01*
G01*
X95000000Y-78147500D02*
G75*
G02*
X94420349Y-77727429I100J610100D01*
G01*
X115000000Y-26927500D02*
G75*
G02*
X115579676Y-27347500I-16J-610051D01*
G01*
X115579676Y-77727437D02*
G75*
G02*
X115000000Y-78147500I-579677J189939D01*
G01*
%TD*%
M02*
