%TF.GenerationSoftware,KiCad,Pcbnew,9.0.0*%
%TF.CreationDate,2025-03-22T03:19:02+00:00*%
%TF.ProjectId,PicoConsole,5069636f-436f-46e7-936f-6c652e6b6963,1*%
%TF.SameCoordinates,Original*%
%TF.FileFunction,Copper,L1,Top*%
%TF.FilePolarity,Positive*%
%FSLAX46Y46*%
G04 Gerber Fmt 4.6, Leading zero omitted, Abs format (unit mm)*
G04 Created by KiCad (PCBNEW 9.0.0) date 2025-03-22 03:19:02*
%MOMM*%
%LPD*%
G01*
G04 APERTURE LIST*
G04 Aperture macros list*
%AMRoundRect*
0 Rectangle with rounded corners*
0 $1 Rounding radius*
0 $2 $3 $4 $5 $6 $7 $8 $9 X,Y pos of 4 corners*
0 Add a 4 corners polygon primitive as box body*
4,1,4,$2,$3,$4,$5,$6,$7,$8,$9,$2,$3,0*
0 Add four circle primitives for the rounded corners*
1,1,$1+$1,$2,$3*
1,1,$1+$1,$4,$5*
1,1,$1+$1,$6,$7*
1,1,$1+$1,$8,$9*
0 Add four rect primitives between the rounded corners*
20,1,$1+$1,$2,$3,$4,$5,0*
20,1,$1+$1,$4,$5,$6,$7,0*
20,1,$1+$1,$6,$7,$8,$9,0*
20,1,$1+$1,$8,$9,$2,$3,0*%
%AMFreePoly0*
4,1,37,0.603843,0.796157,0.639018,0.796157,0.711114,0.766294,0.766294,0.711114,0.796157,0.639018,0.796157,0.603843,0.800000,0.600000,0.800000,-0.600000,0.796157,-0.603843,0.796157,-0.639018,0.766294,-0.711114,0.711114,-0.766294,0.639018,-0.796157,0.603843,-0.796157,0.600000,-0.800000,0.000000,-0.800000,0.000000,-0.796148,-0.078414,-0.796148,-0.232228,-0.765552,-0.377117,-0.705537,
-0.507515,-0.618408,-0.618408,-0.507515,-0.705537,-0.377117,-0.765552,-0.232228,-0.796148,-0.078414,-0.796148,0.078414,-0.765552,0.232228,-0.705537,0.377117,-0.618408,0.507515,-0.507515,0.618408,-0.377117,0.705537,-0.232228,0.765552,-0.078414,0.796148,0.000000,0.796148,0.000000,0.800000,0.600000,0.800000,0.603843,0.796157,0.603843,0.796157,$1*%
%AMFreePoly1*
4,1,37,0.000000,0.796148,0.078414,0.796148,0.232228,0.765552,0.377117,0.705537,0.507515,0.618408,0.618408,0.507515,0.705537,0.377117,0.765552,0.232228,0.796148,0.078414,0.796148,-0.078414,0.765552,-0.232228,0.705537,-0.377117,0.618408,-0.507515,0.507515,-0.618408,0.377117,-0.705537,0.232228,-0.765552,0.078414,-0.796148,0.000000,-0.796148,0.000000,-0.800000,-0.600000,-0.800000,
-0.603843,-0.796157,-0.639018,-0.796157,-0.711114,-0.766294,-0.766294,-0.711114,-0.796157,-0.639018,-0.796157,-0.603843,-0.800000,-0.600000,-0.800000,0.600000,-0.796157,0.603843,-0.796157,0.639018,-0.766294,0.711114,-0.711114,0.766294,-0.639018,0.796157,-0.603843,0.796157,-0.600000,0.800000,0.000000,0.800000,0.000000,0.796148,0.000000,0.796148,$1*%
G04 Aperture macros list end*
%TA.AperFunction,ComponentPad*%
%ADD10C,1.905000*%
%TD*%
%TA.AperFunction,SMDPad,CuDef*%
%ADD11RoundRect,0.190500X-0.762000X-0.444500X0.762000X-0.444500X0.762000X0.444500X-0.762000X0.444500X0*%
%TD*%
%TA.AperFunction,ComponentPad*%
%ADD12C,4.000000*%
%TD*%
%TA.AperFunction,ComponentPad*%
%ADD13RoundRect,0.200000X0.600000X0.600000X-0.600000X0.600000X-0.600000X-0.600000X0.600000X-0.600000X0*%
%TD*%
%TA.AperFunction,ComponentPad*%
%ADD14C,1.600000*%
%TD*%
%TA.AperFunction,ComponentPad*%
%ADD15FreePoly0,180.000000*%
%TD*%
%TA.AperFunction,ComponentPad*%
%ADD16FreePoly1,180.000000*%
%TD*%
%TA.AperFunction,ViaPad*%
%ADD17C,0.600000*%
%TD*%
%TA.AperFunction,Conductor*%
%ADD18C,0.300000*%
%TD*%
G04 APERTURE END LIST*
D10*
%TO.P,but2,4,GND*%
%TO.N,pinTwo*%
X133880000Y-109753900D03*
%TO.P,but2,3,GND*%
%TO.N,unconnected-(but2-GND-Pad3)*%
X133880000Y-105253900D03*
%TO.P,but2,2,VCC*%
%TO.N,VCC*%
X127380000Y-109753900D03*
%TO.P,but2,1,VCC*%
%TO.N,unconnected-(but2-VCC-Pad1)*%
X127380000Y-105253900D03*
%TD*%
D11*
%TO.P,screenConnector1,8,VCC*%
%TO.N,VCC*%
X186000000Y-65253900D03*
%TO.P,screenConnector1,7,GND*%
%TO.N,GROUND*%
X186000000Y-63753900D03*
%TO.P,screenConnector1,6,DIN*%
%TO.N,MOSI*%
X186000000Y-62253900D03*
%TO.P,screenConnector1,5,CLK*%
%TO.N,CLOCK*%
X186000000Y-60753900D03*
%TO.P,screenConnector1,4,CS*%
%TO.N,SCR_CS*%
X186000000Y-59253900D03*
%TO.P,screenConnector1,3,DC*%
%TO.N,SCR_DC*%
X186000000Y-57753900D03*
%TO.P,screenConnector1,2,RST*%
%TO.N,SCR_RST*%
X186000000Y-56253900D03*
%TO.P,screenConnector1,1,bl*%
%TO.N,SCR_BL*%
X186000000Y-54753900D03*
%TD*%
D10*
%TO.P,but1,4,GND*%
%TO.N,pinThree*%
X127380000Y-99753900D03*
%TO.P,but1,3,GND*%
%TO.N,unconnected-(but1-GND-Pad3)*%
X127380000Y-95253900D03*
%TO.P,but1,2,VCC*%
%TO.N,VCC*%
X120880000Y-99753900D03*
%TO.P,but1,1,VCC*%
%TO.N,unconnected-(but1-VCC-Pad1)*%
X120880000Y-95253900D03*
%TD*%
D12*
%TO.P,e,1*%
%TO.N,N/C*%
X134030000Y-72603900D03*
%TD*%
%TO.P,REF\u002A\u002A,1*%
%TO.N,N/C*%
X179730000Y-50903900D03*
%TD*%
D10*
%TO.P,but3,4,GND*%
%TO.N,pinOne*%
X139880000Y-99753900D03*
%TO.P,but3,3,GND*%
%TO.N,unconnected-(but3-GND-Pad3)*%
X139880000Y-95253900D03*
%TO.P,but3,2,VCC*%
%TO.N,VCC*%
X133380000Y-99753900D03*
%TO.P,but3,1,VCC*%
%TO.N,unconnected-(but3-VCC-Pad1)*%
X133380000Y-95253900D03*
%TD*%
%TO.P,AnalogJoystick1,6,vcc*%
%TO.N,VCC*%
X176530000Y-109228900D03*
%TO.P,AnalogJoystick1,5,gnd*%
%TO.N,GROUND*%
X180530000Y-109228900D03*
%TO.P,AnalogJoystick1,4,yout*%
%TO.N,JOYy*%
X178530000Y-109228900D03*
%TO.P,AnalogJoystick1,3,vcc*%
%TO.N,VCC*%
X187380000Y-102253900D03*
%TO.P,AnalogJoystick1,2,gnd*%
%TO.N,GROUND*%
X187380000Y-98253900D03*
%TO.P,AnalogJoystick1,1,xout*%
%TO.N,JOYx*%
X187380000Y-100253900D03*
%TD*%
D13*
%TO.P,A1,1,GPIO0*%
%TO.N,unconnected-(A1-GPIO0-Pad1)*%
X165770000Y-37161400D03*
D14*
%TO.P,A1,2,GPIO1*%
%TO.N,unconnected-(A1-GPIO1-Pad2)*%
X165770000Y-39701400D03*
D15*
%TO.P,A1,3,GND*%
%TO.N,GROUND*%
X165770000Y-42241400D03*
D14*
%TO.P,A1,4,GPIO2*%
%TO.N,CLOCK*%
X165770000Y-44781400D03*
%TO.P,A1,5,GPIO3*%
%TO.N,MOSI*%
X165770000Y-47321400D03*
%TO.P,A1,6,GPIO4*%
%TO.N,MISO*%
X165770000Y-49861400D03*
%TO.P,A1,7,GPIO5*%
%TO.N,unconnected-(A1-GPIO5-Pad7)*%
X165770000Y-52401400D03*
D15*
%TO.P,A1,8,GND*%
%TO.N,GROUND*%
X165770000Y-54941400D03*
D14*
%TO.P,A1,9,GPIO6*%
%TO.N,SCR_CS*%
X165770000Y-57481400D03*
%TO.P,A1,10,GPIO7*%
%TO.N,SCR_DC*%
X165770000Y-60021400D03*
%TO.P,A1,11,GPIO8*%
%TO.N,SCR_BL*%
X165770000Y-62561400D03*
%TO.P,A1,12,GPIO9*%
%TO.N,SCR_RST*%
X165770000Y-65101400D03*
D15*
%TO.P,A1,13,GND*%
%TO.N,GROUND*%
X165770000Y-67641400D03*
D14*
%TO.P,A1,14,GPIO10*%
%TO.N,unconnected-(A1-GPIO10-Pad14)*%
X165770000Y-70181400D03*
%TO.P,A1,15,GPIO11*%
%TO.N,unconnected-(A1-GPIO11-Pad15)*%
X165770000Y-72721400D03*
%TO.P,A1,16,GPIO12*%
%TO.N,MMC_CS*%
X165770000Y-75261400D03*
%TO.P,A1,17,GPIO13*%
%TO.N,unconnected-(A1-GPIO13-Pad17)*%
X165770000Y-77801400D03*
D15*
%TO.P,A1,18,GND*%
%TO.N,GROUND*%
X165770000Y-80341400D03*
D14*
%TO.P,A1,19,GPIO14*%
%TO.N,unconnected-(A1-GPIO14-Pad19)*%
X165770000Y-82881400D03*
%TO.P,A1,20,GPIO15*%
%TO.N,unconnected-(A1-GPIO15-Pad20)*%
X165770000Y-85421400D03*
%TO.P,A1,21,GPIO16*%
%TO.N,unconnected-(A1-GPIO16-Pad21)*%
X147990000Y-85421400D03*
%TO.P,A1,22,GPIO17*%
%TO.N,unconnected-(A1-GPIO17-Pad22)*%
X147990000Y-82881400D03*
D16*
%TO.P,A1,23,GND*%
%TO.N,GROUND*%
X147990000Y-80341400D03*
D14*
%TO.P,A1,24,GPIO18*%
%TO.N,unconnected-(A1-GPIO18-Pad24)*%
X147990000Y-77801400D03*
%TO.P,A1,25,GPIO19*%
%TO.N,unconnected-(A1-GPIO19-Pad25)*%
X147990000Y-75261400D03*
%TO.P,A1,26,GPIO20*%
%TO.N,pinThree*%
X147990000Y-72721400D03*
%TO.P,A1,27,GPIO21*%
%TO.N,pinTwo*%
X147990000Y-70181400D03*
D16*
%TO.P,A1,28,GND*%
%TO.N,GROUND*%
X147990000Y-67641400D03*
D14*
%TO.P,A1,29,GPIO22*%
%TO.N,pinOne*%
X147990000Y-65101400D03*
%TO.P,A1,30,RUN*%
%TO.N,unconnected-(A1-RUN-Pad30)*%
X147990000Y-62561400D03*
%TO.P,A1,31,GPIO26_ADC0*%
%TO.N,JOYy*%
X147990000Y-60021400D03*
%TO.P,A1,32,GPIO27_ADC1*%
%TO.N,JOYx*%
X147990000Y-57481400D03*
D16*
%TO.P,A1,33,AGND*%
%TO.N,unconnected-(A1-AGND-Pad33)*%
X147990000Y-54941400D03*
D14*
%TO.P,A1,34,GPIO28_ADC2*%
%TO.N,unconnected-(A1-GPIO28_ADC2-Pad34)*%
X147990000Y-52401400D03*
%TO.P,A1,35,ADC_VREF*%
%TO.N,unconnected-(A1-ADC_VREF-Pad35)*%
X147990000Y-49861400D03*
%TO.P,A1,36,3V3*%
%TO.N,VCC*%
X147990000Y-47321400D03*
%TO.P,A1,37,3V3_EN*%
%TO.N,unconnected-(A1-3V3_EN-Pad37)*%
X147990000Y-44781400D03*
D16*
%TO.P,A1,38,GND*%
%TO.N,GROUND*%
X147990000Y-42241400D03*
D14*
%TO.P,A1,39,VSYS*%
%TO.N,unconnected-(A1-VSYS-Pad39)*%
X147990000Y-39701400D03*
%TO.P,A1,40,VBUS*%
%TO.N,unconnected-(A1-VBUS-Pad40)*%
X147990000Y-37161400D03*
%TD*%
D17*
%TO.N,SCR_CS*%
X184199000Y-56560200D03*
%TO.N,MISO*%
X167713600Y-103292500D03*
%TO.N,pinThree*%
X131566300Y-75080800D03*
%TO.N,JOYy*%
X178379600Y-61291300D03*
%TO.N,JOYx*%
X142377100Y-95221400D03*
%TO.N,CLOCK*%
X183650500Y-44781400D03*
X179173800Y-106260600D03*
%TO.N,SCR_BL*%
X186000000Y-53476700D03*
%TO.N,MOSI*%
X182297000Y-56556800D03*
X179857000Y-101728300D03*
%TO.N,SCR_RST*%
X187562000Y-56365400D03*
%TO.N,MMC_CS*%
X164475100Y-98590700D03*
%TO.N,SCR_DC*%
X184407300Y-57481400D03*
%TO.N,GROUND*%
X187406100Y-82133700D03*
X182528600Y-98253900D03*
%TD*%
D18*
%TO.N,SCR_CS*%
X185048000Y-59253900D02*
X186000000Y-59253900D01*
X183650500Y-57856400D02*
X185048000Y-59253900D01*
X183650500Y-57108700D02*
X183650500Y-57856400D01*
X184199000Y-56560200D02*
X183650500Y-57108700D01*
%TO.N,MISO*%
X167713600Y-51805000D02*
X167713600Y-103292500D01*
X165770000Y-49861400D02*
X167713600Y-51805000D01*
%TO.N,pinThree*%
X131566300Y-95567600D02*
X127380000Y-99753900D01*
X131566300Y-75080800D02*
X131566300Y-95567600D01*
%TO.N,pinTwo*%
X143853600Y-74317800D02*
X147990000Y-70181400D01*
X143853600Y-99780300D02*
X143853600Y-74317800D01*
X133880000Y-109753900D02*
X143853600Y-99780300D01*
%TO.N,JOYy*%
X178379600Y-109078500D02*
X178379600Y-61291300D01*
X178530000Y-109228900D02*
X178379600Y-109078500D01*
%TO.N,JOYx*%
X142377100Y-63094300D02*
X142377100Y-95221400D01*
X147990000Y-57481400D02*
X142377100Y-63094300D01*
%TO.N,CLOCK*%
X185366100Y-60753900D02*
X186000000Y-60753900D01*
X183048800Y-58436600D02*
X185366100Y-60753900D01*
X183048800Y-55785600D02*
X183048800Y-58436600D01*
X183650500Y-55183900D02*
X183048800Y-55785600D01*
X183650500Y-44781400D02*
X183650500Y-55183900D01*
X179055100Y-106141900D02*
X179173800Y-106260600D01*
X179055100Y-65775600D02*
X179055100Y-106141900D01*
X180816600Y-64014100D02*
X179055100Y-65775600D01*
X180816600Y-56974200D02*
X180816600Y-64014100D01*
X182005200Y-55785600D02*
X180816600Y-56974200D01*
X183048800Y-55785600D02*
X182005200Y-55785600D01*
%TO.N,SCR_BL*%
X186000000Y-54753900D02*
X186000000Y-53476700D01*
%TO.N,MOSI*%
X185337800Y-62253900D02*
X186000000Y-62253900D01*
X179857000Y-67734700D02*
X179857000Y-101728300D01*
X185337800Y-62253900D02*
X179857000Y-67734700D01*
X182297000Y-59213100D02*
X185337800Y-62253900D01*
X182297000Y-56556800D02*
X182297000Y-59213100D01*
%TO.N,SCR_RST*%
X187450500Y-56253900D02*
X187562000Y-56365400D01*
X186000000Y-56253900D02*
X187450500Y-56253900D01*
%TO.N,pinOne*%
X143151200Y-69940200D02*
X147990000Y-65101400D01*
X143151200Y-96482700D02*
X143151200Y-69940200D01*
X139880000Y-99753900D02*
X143151200Y-96482700D01*
%TO.N,MMC_CS*%
X164475100Y-76556300D02*
X164475100Y-98590700D01*
X165770000Y-75261400D02*
X164475100Y-76556300D01*
%TO.N,VCC*%
X136630100Y-96503800D02*
X133380000Y-99753900D01*
X136630100Y-58681300D02*
X136630100Y-96503800D01*
X147990000Y-47321400D02*
X136630100Y-58681300D01*
X185933700Y-100807600D02*
X187380000Y-102253900D01*
X185933700Y-65320200D02*
X185933700Y-100807600D01*
X186000000Y-65253900D02*
X185933700Y-65320200D01*
%TO.N,SCR_DC*%
X185727500Y-57481400D02*
X184407300Y-57481400D01*
X186000000Y-57753900D02*
X185727500Y-57481400D01*
%TO.N,GROUND*%
X149279800Y-68931200D02*
X147990000Y-67641400D01*
X149279800Y-79051600D02*
X149279800Y-68931200D01*
X147990000Y-80341400D02*
X149279800Y-79051600D01*
X167058300Y-67641400D02*
X165770000Y-67641400D01*
X167058300Y-56229700D02*
X167058300Y-67641400D01*
X165770000Y-54941400D02*
X167058300Y-56229700D01*
X167058300Y-79053100D02*
X165770000Y-80341400D01*
X167058300Y-67641400D02*
X167058300Y-79053100D01*
X164480200Y-53651600D02*
X165770000Y-54941400D01*
X164480200Y-43531200D02*
X164480200Y-53651600D01*
X165770000Y-42241400D02*
X164480200Y-43531200D01*
X187406100Y-98227800D02*
X187406100Y-82133700D01*
X187380000Y-98253900D02*
X187406100Y-98227800D01*
X186692000Y-63753900D02*
X186000000Y-63753900D01*
X187406100Y-64468000D02*
X186692000Y-63753900D01*
X187406100Y-82133700D02*
X187406100Y-64468000D01*
X182528600Y-107230300D02*
X182528600Y-98253900D01*
X180530000Y-109228900D02*
X182528600Y-107230300D01*
%TD*%
M02*
