%TF.GenerationSoftware,KiCad,Pcbnew,9.0.0*%
%TF.CreationDate,2025-03-20T22:52:04+00:00*%
%TF.ProjectId,PicoConsole,5069636f-436f-46e7-936f-6c652e6b6963,rev?*%
%TF.SameCoordinates,Original*%
%TF.FileFunction,Legend,Top*%
%TF.FilePolarity,Positive*%
%FSLAX46Y46*%
G04 Gerber Fmt 4.6, Leading zero omitted, Abs format (unit mm)*
G04 Created by KiCad (PCBNEW 9.0.0) date 2025-03-20 22:52:04*
%MOMM*%
%LPD*%
G01*
G04 APERTURE LIST*
%ADD10C,0.100000*%
G04 APERTURE END LIST*
D10*
X77321428Y-98707419D02*
X77321428Y-97707419D01*
X77321428Y-98088371D02*
X77416666Y-98040752D01*
X77416666Y-98040752D02*
X77607142Y-98040752D01*
X77607142Y-98040752D02*
X77702380Y-98088371D01*
X77702380Y-98088371D02*
X77749999Y-98135990D01*
X77749999Y-98135990D02*
X77797618Y-98231228D01*
X77797618Y-98231228D02*
X77797618Y-98516942D01*
X77797618Y-98516942D02*
X77749999Y-98612180D01*
X77749999Y-98612180D02*
X77702380Y-98659800D01*
X77702380Y-98659800D02*
X77607142Y-98707419D01*
X77607142Y-98707419D02*
X77416666Y-98707419D01*
X77416666Y-98707419D02*
X77321428Y-98659800D01*
X78654761Y-98040752D02*
X78654761Y-98707419D01*
X78226190Y-98040752D02*
X78226190Y-98564561D01*
X78226190Y-98564561D02*
X78273809Y-98659800D01*
X78273809Y-98659800D02*
X78369047Y-98707419D01*
X78369047Y-98707419D02*
X78511904Y-98707419D01*
X78511904Y-98707419D02*
X78607142Y-98659800D01*
X78607142Y-98659800D02*
X78654761Y-98612180D01*
X78988095Y-98040752D02*
X79369047Y-98040752D01*
X79130952Y-97707419D02*
X79130952Y-98564561D01*
X79130952Y-98564561D02*
X79178571Y-98659800D01*
X79178571Y-98659800D02*
X79273809Y-98707419D01*
X79273809Y-98707419D02*
X79369047Y-98707419D01*
X79654762Y-97802657D02*
X79702381Y-97755038D01*
X79702381Y-97755038D02*
X79797619Y-97707419D01*
X79797619Y-97707419D02*
X80035714Y-97707419D01*
X80035714Y-97707419D02*
X80130952Y-97755038D01*
X80130952Y-97755038D02*
X80178571Y-97802657D01*
X80178571Y-97802657D02*
X80226190Y-97897895D01*
X80226190Y-97897895D02*
X80226190Y-97993133D01*
X80226190Y-97993133D02*
X80178571Y-98135990D01*
X80178571Y-98135990D02*
X79607143Y-98707419D01*
X79607143Y-98707419D02*
X80226190Y-98707419D01*
X61999999Y-53909800D02*
X62095237Y-53957419D01*
X62095237Y-53957419D02*
X62285713Y-53957419D01*
X62285713Y-53957419D02*
X62380951Y-53909800D01*
X62380951Y-53909800D02*
X62428570Y-53814561D01*
X62428570Y-53814561D02*
X62428570Y-53766942D01*
X62428570Y-53766942D02*
X62380951Y-53671704D01*
X62380951Y-53671704D02*
X62285713Y-53624085D01*
X62285713Y-53624085D02*
X62142856Y-53624085D01*
X62142856Y-53624085D02*
X62047618Y-53576466D01*
X62047618Y-53576466D02*
X61999999Y-53481228D01*
X61999999Y-53481228D02*
X61999999Y-53433609D01*
X61999999Y-53433609D02*
X62047618Y-53338371D01*
X62047618Y-53338371D02*
X62142856Y-53290752D01*
X62142856Y-53290752D02*
X62285713Y-53290752D01*
X62285713Y-53290752D02*
X62380951Y-53338371D01*
X63285713Y-53909800D02*
X63190475Y-53957419D01*
X63190475Y-53957419D02*
X62999999Y-53957419D01*
X62999999Y-53957419D02*
X62904761Y-53909800D01*
X62904761Y-53909800D02*
X62857142Y-53862180D01*
X62857142Y-53862180D02*
X62809523Y-53766942D01*
X62809523Y-53766942D02*
X62809523Y-53481228D01*
X62809523Y-53481228D02*
X62857142Y-53385990D01*
X62857142Y-53385990D02*
X62904761Y-53338371D01*
X62904761Y-53338371D02*
X62999999Y-53290752D01*
X62999999Y-53290752D02*
X63190475Y-53290752D01*
X63190475Y-53290752D02*
X63285713Y-53338371D01*
X63714285Y-53957419D02*
X63714285Y-53290752D01*
X63714285Y-53481228D02*
X63761904Y-53385990D01*
X63761904Y-53385990D02*
X63809523Y-53338371D01*
X63809523Y-53338371D02*
X63904761Y-53290752D01*
X63904761Y-53290752D02*
X63999999Y-53290752D01*
X64714285Y-53909800D02*
X64619047Y-53957419D01*
X64619047Y-53957419D02*
X64428571Y-53957419D01*
X64428571Y-53957419D02*
X64333333Y-53909800D01*
X64333333Y-53909800D02*
X64285714Y-53814561D01*
X64285714Y-53814561D02*
X64285714Y-53433609D01*
X64285714Y-53433609D02*
X64333333Y-53338371D01*
X64333333Y-53338371D02*
X64428571Y-53290752D01*
X64428571Y-53290752D02*
X64619047Y-53290752D01*
X64619047Y-53290752D02*
X64714285Y-53338371D01*
X64714285Y-53338371D02*
X64761904Y-53433609D01*
X64761904Y-53433609D02*
X64761904Y-53528847D01*
X64761904Y-53528847D02*
X64285714Y-53624085D01*
X65571428Y-53909800D02*
X65476190Y-53957419D01*
X65476190Y-53957419D02*
X65285714Y-53957419D01*
X65285714Y-53957419D02*
X65190476Y-53909800D01*
X65190476Y-53909800D02*
X65142857Y-53814561D01*
X65142857Y-53814561D02*
X65142857Y-53433609D01*
X65142857Y-53433609D02*
X65190476Y-53338371D01*
X65190476Y-53338371D02*
X65285714Y-53290752D01*
X65285714Y-53290752D02*
X65476190Y-53290752D01*
X65476190Y-53290752D02*
X65571428Y-53338371D01*
X65571428Y-53338371D02*
X65619047Y-53433609D01*
X65619047Y-53433609D02*
X65619047Y-53528847D01*
X65619047Y-53528847D02*
X65142857Y-53624085D01*
X66047619Y-53290752D02*
X66047619Y-53957419D01*
X66047619Y-53385990D02*
X66095238Y-53338371D01*
X66095238Y-53338371D02*
X66190476Y-53290752D01*
X66190476Y-53290752D02*
X66333333Y-53290752D01*
X66333333Y-53290752D02*
X66428571Y-53338371D01*
X66428571Y-53338371D02*
X66476190Y-53433609D01*
X66476190Y-53433609D02*
X66476190Y-53957419D01*
X67523809Y-53862180D02*
X67476190Y-53909800D01*
X67476190Y-53909800D02*
X67333333Y-53957419D01*
X67333333Y-53957419D02*
X67238095Y-53957419D01*
X67238095Y-53957419D02*
X67095238Y-53909800D01*
X67095238Y-53909800D02*
X67000000Y-53814561D01*
X67000000Y-53814561D02*
X66952381Y-53719323D01*
X66952381Y-53719323D02*
X66904762Y-53528847D01*
X66904762Y-53528847D02*
X66904762Y-53385990D01*
X66904762Y-53385990D02*
X66952381Y-53195514D01*
X66952381Y-53195514D02*
X67000000Y-53100276D01*
X67000000Y-53100276D02*
X67095238Y-53005038D01*
X67095238Y-53005038D02*
X67238095Y-52957419D01*
X67238095Y-52957419D02*
X67333333Y-52957419D01*
X67333333Y-52957419D02*
X67476190Y-53005038D01*
X67476190Y-53005038D02*
X67523809Y-53052657D01*
X68095238Y-53957419D02*
X68000000Y-53909800D01*
X68000000Y-53909800D02*
X67952381Y-53862180D01*
X67952381Y-53862180D02*
X67904762Y-53766942D01*
X67904762Y-53766942D02*
X67904762Y-53481228D01*
X67904762Y-53481228D02*
X67952381Y-53385990D01*
X67952381Y-53385990D02*
X68000000Y-53338371D01*
X68000000Y-53338371D02*
X68095238Y-53290752D01*
X68095238Y-53290752D02*
X68238095Y-53290752D01*
X68238095Y-53290752D02*
X68333333Y-53338371D01*
X68333333Y-53338371D02*
X68380952Y-53385990D01*
X68380952Y-53385990D02*
X68428571Y-53481228D01*
X68428571Y-53481228D02*
X68428571Y-53766942D01*
X68428571Y-53766942D02*
X68380952Y-53862180D01*
X68380952Y-53862180D02*
X68333333Y-53909800D01*
X68333333Y-53909800D02*
X68238095Y-53957419D01*
X68238095Y-53957419D02*
X68095238Y-53957419D01*
X68857143Y-53290752D02*
X68857143Y-53957419D01*
X68857143Y-53385990D02*
X68904762Y-53338371D01*
X68904762Y-53338371D02*
X69000000Y-53290752D01*
X69000000Y-53290752D02*
X69142857Y-53290752D01*
X69142857Y-53290752D02*
X69238095Y-53338371D01*
X69238095Y-53338371D02*
X69285714Y-53433609D01*
X69285714Y-53433609D02*
X69285714Y-53957419D01*
X69761905Y-53290752D02*
X69761905Y-53957419D01*
X69761905Y-53385990D02*
X69809524Y-53338371D01*
X69809524Y-53338371D02*
X69904762Y-53290752D01*
X69904762Y-53290752D02*
X70047619Y-53290752D01*
X70047619Y-53290752D02*
X70142857Y-53338371D01*
X70142857Y-53338371D02*
X70190476Y-53433609D01*
X70190476Y-53433609D02*
X70190476Y-53957419D01*
X71047619Y-53909800D02*
X70952381Y-53957419D01*
X70952381Y-53957419D02*
X70761905Y-53957419D01*
X70761905Y-53957419D02*
X70666667Y-53909800D01*
X70666667Y-53909800D02*
X70619048Y-53814561D01*
X70619048Y-53814561D02*
X70619048Y-53433609D01*
X70619048Y-53433609D02*
X70666667Y-53338371D01*
X70666667Y-53338371D02*
X70761905Y-53290752D01*
X70761905Y-53290752D02*
X70952381Y-53290752D01*
X70952381Y-53290752D02*
X71047619Y-53338371D01*
X71047619Y-53338371D02*
X71095238Y-53433609D01*
X71095238Y-53433609D02*
X71095238Y-53528847D01*
X71095238Y-53528847D02*
X70619048Y-53624085D01*
X71952381Y-53909800D02*
X71857143Y-53957419D01*
X71857143Y-53957419D02*
X71666667Y-53957419D01*
X71666667Y-53957419D02*
X71571429Y-53909800D01*
X71571429Y-53909800D02*
X71523810Y-53862180D01*
X71523810Y-53862180D02*
X71476191Y-53766942D01*
X71476191Y-53766942D02*
X71476191Y-53481228D01*
X71476191Y-53481228D02*
X71523810Y-53385990D01*
X71523810Y-53385990D02*
X71571429Y-53338371D01*
X71571429Y-53338371D02*
X71666667Y-53290752D01*
X71666667Y-53290752D02*
X71857143Y-53290752D01*
X71857143Y-53290752D02*
X71952381Y-53338371D01*
X72238096Y-53290752D02*
X72619048Y-53290752D01*
X72380953Y-52957419D02*
X72380953Y-53814561D01*
X72380953Y-53814561D02*
X72428572Y-53909800D01*
X72428572Y-53909800D02*
X72523810Y-53957419D01*
X72523810Y-53957419D02*
X72619048Y-53957419D01*
X73095239Y-53957419D02*
X73000001Y-53909800D01*
X73000001Y-53909800D02*
X72952382Y-53862180D01*
X72952382Y-53862180D02*
X72904763Y-53766942D01*
X72904763Y-53766942D02*
X72904763Y-53481228D01*
X72904763Y-53481228D02*
X72952382Y-53385990D01*
X72952382Y-53385990D02*
X73000001Y-53338371D01*
X73000001Y-53338371D02*
X73095239Y-53290752D01*
X73095239Y-53290752D02*
X73238096Y-53290752D01*
X73238096Y-53290752D02*
X73333334Y-53338371D01*
X73333334Y-53338371D02*
X73380953Y-53385990D01*
X73380953Y-53385990D02*
X73428572Y-53481228D01*
X73428572Y-53481228D02*
X73428572Y-53766942D01*
X73428572Y-53766942D02*
X73380953Y-53862180D01*
X73380953Y-53862180D02*
X73333334Y-53909800D01*
X73333334Y-53909800D02*
X73238096Y-53957419D01*
X73238096Y-53957419D02*
X73095239Y-53957419D01*
X73857144Y-53957419D02*
X73857144Y-53290752D01*
X73857144Y-53481228D02*
X73904763Y-53385990D01*
X73904763Y-53385990D02*
X73952382Y-53338371D01*
X73952382Y-53338371D02*
X74047620Y-53290752D01*
X74047620Y-53290752D02*
X74142858Y-53290752D01*
X75000001Y-53957419D02*
X74428573Y-53957419D01*
X74714287Y-53957419D02*
X74714287Y-52957419D01*
X74714287Y-52957419D02*
X74619049Y-53100276D01*
X74619049Y-53100276D02*
X74523811Y-53195514D01*
X74523811Y-53195514D02*
X74428573Y-53243133D01*
X70821428Y-88707419D02*
X70821428Y-87707419D01*
X70821428Y-88088371D02*
X70916666Y-88040752D01*
X70916666Y-88040752D02*
X71107142Y-88040752D01*
X71107142Y-88040752D02*
X71202380Y-88088371D01*
X71202380Y-88088371D02*
X71249999Y-88135990D01*
X71249999Y-88135990D02*
X71297618Y-88231228D01*
X71297618Y-88231228D02*
X71297618Y-88516942D01*
X71297618Y-88516942D02*
X71249999Y-88612180D01*
X71249999Y-88612180D02*
X71202380Y-88659800D01*
X71202380Y-88659800D02*
X71107142Y-88707419D01*
X71107142Y-88707419D02*
X70916666Y-88707419D01*
X70916666Y-88707419D02*
X70821428Y-88659800D01*
X72154761Y-88040752D02*
X72154761Y-88707419D01*
X71726190Y-88040752D02*
X71726190Y-88564561D01*
X71726190Y-88564561D02*
X71773809Y-88659800D01*
X71773809Y-88659800D02*
X71869047Y-88707419D01*
X71869047Y-88707419D02*
X72011904Y-88707419D01*
X72011904Y-88707419D02*
X72107142Y-88659800D01*
X72107142Y-88659800D02*
X72154761Y-88612180D01*
X72488095Y-88040752D02*
X72869047Y-88040752D01*
X72630952Y-87707419D02*
X72630952Y-88564561D01*
X72630952Y-88564561D02*
X72678571Y-88659800D01*
X72678571Y-88659800D02*
X72773809Y-88707419D01*
X72773809Y-88707419D02*
X72869047Y-88707419D01*
X73726190Y-88707419D02*
X73154762Y-88707419D01*
X73440476Y-88707419D02*
X73440476Y-87707419D01*
X73440476Y-87707419D02*
X73345238Y-87850276D01*
X73345238Y-87850276D02*
X73250000Y-87945514D01*
X73250000Y-87945514D02*
X73154762Y-87993133D01*
X82340476Y-63759800D02*
X82245238Y-63807419D01*
X82245238Y-63807419D02*
X82054762Y-63807419D01*
X82054762Y-63807419D02*
X81959524Y-63759800D01*
X81959524Y-63759800D02*
X81911905Y-63664561D01*
X81911905Y-63664561D02*
X81911905Y-63283609D01*
X81911905Y-63283609D02*
X81959524Y-63188371D01*
X81959524Y-63188371D02*
X82054762Y-63140752D01*
X82054762Y-63140752D02*
X82245238Y-63140752D01*
X82245238Y-63140752D02*
X82340476Y-63188371D01*
X82340476Y-63188371D02*
X82388095Y-63283609D01*
X82388095Y-63283609D02*
X82388095Y-63378847D01*
X82388095Y-63378847D02*
X81911905Y-63474085D01*
X126516666Y-42107419D02*
X126183333Y-41631228D01*
X125945238Y-42107419D02*
X125945238Y-41107419D01*
X125945238Y-41107419D02*
X126326190Y-41107419D01*
X126326190Y-41107419D02*
X126421428Y-41155038D01*
X126421428Y-41155038D02*
X126469047Y-41202657D01*
X126469047Y-41202657D02*
X126516666Y-41297895D01*
X126516666Y-41297895D02*
X126516666Y-41440752D01*
X126516666Y-41440752D02*
X126469047Y-41535990D01*
X126469047Y-41535990D02*
X126421428Y-41583609D01*
X126421428Y-41583609D02*
X126326190Y-41631228D01*
X126326190Y-41631228D02*
X125945238Y-41631228D01*
X126945238Y-41583609D02*
X127278571Y-41583609D01*
X127421428Y-42107419D02*
X126945238Y-42107419D01*
X126945238Y-42107419D02*
X126945238Y-41107419D01*
X126945238Y-41107419D02*
X127421428Y-41107419D01*
X128183333Y-41583609D02*
X127850000Y-41583609D01*
X127850000Y-42107419D02*
X127850000Y-41107419D01*
X127850000Y-41107419D02*
X128326190Y-41107419D01*
X128850000Y-41107419D02*
X128850000Y-41345514D01*
X128611905Y-41250276D02*
X128850000Y-41345514D01*
X128850000Y-41345514D02*
X129088095Y-41250276D01*
X128707143Y-41535990D02*
X128850000Y-41345514D01*
X128850000Y-41345514D02*
X128992857Y-41535990D01*
X129611905Y-41107419D02*
X129611905Y-41345514D01*
X129373810Y-41250276D02*
X129611905Y-41345514D01*
X129611905Y-41345514D02*
X129850000Y-41250276D01*
X129469048Y-41535990D02*
X129611905Y-41345514D01*
X129611905Y-41345514D02*
X129754762Y-41535990D01*
X83321428Y-88707419D02*
X83321428Y-87707419D01*
X83321428Y-88088371D02*
X83416666Y-88040752D01*
X83416666Y-88040752D02*
X83607142Y-88040752D01*
X83607142Y-88040752D02*
X83702380Y-88088371D01*
X83702380Y-88088371D02*
X83749999Y-88135990D01*
X83749999Y-88135990D02*
X83797618Y-88231228D01*
X83797618Y-88231228D02*
X83797618Y-88516942D01*
X83797618Y-88516942D02*
X83749999Y-88612180D01*
X83749999Y-88612180D02*
X83702380Y-88659800D01*
X83702380Y-88659800D02*
X83607142Y-88707419D01*
X83607142Y-88707419D02*
X83416666Y-88707419D01*
X83416666Y-88707419D02*
X83321428Y-88659800D01*
X84654761Y-88040752D02*
X84654761Y-88707419D01*
X84226190Y-88040752D02*
X84226190Y-88564561D01*
X84226190Y-88564561D02*
X84273809Y-88659800D01*
X84273809Y-88659800D02*
X84369047Y-88707419D01*
X84369047Y-88707419D02*
X84511904Y-88707419D01*
X84511904Y-88707419D02*
X84607142Y-88659800D01*
X84607142Y-88659800D02*
X84654761Y-88612180D01*
X84988095Y-88040752D02*
X85369047Y-88040752D01*
X85130952Y-87707419D02*
X85130952Y-88564561D01*
X85130952Y-88564561D02*
X85178571Y-88659800D01*
X85178571Y-88659800D02*
X85273809Y-88707419D01*
X85273809Y-88707419D02*
X85369047Y-88707419D01*
X85607143Y-87707419D02*
X86226190Y-87707419D01*
X86226190Y-87707419D02*
X85892857Y-88088371D01*
X85892857Y-88088371D02*
X86035714Y-88088371D01*
X86035714Y-88088371D02*
X86130952Y-88135990D01*
X86130952Y-88135990D02*
X86178571Y-88183609D01*
X86178571Y-88183609D02*
X86226190Y-88278847D01*
X86226190Y-88278847D02*
X86226190Y-88516942D01*
X86226190Y-88516942D02*
X86178571Y-88612180D01*
X86178571Y-88612180D02*
X86130952Y-88659800D01*
X86130952Y-88659800D02*
X86035714Y-88707419D01*
X86035714Y-88707419D02*
X85750000Y-88707419D01*
X85750000Y-88707419D02*
X85654762Y-88659800D01*
X85654762Y-88659800D02*
X85607143Y-88612180D01*
X120888094Y-91171704D02*
X121364284Y-91171704D01*
X120792856Y-91457419D02*
X121126189Y-90457419D01*
X121126189Y-90457419D02*
X121459522Y-91457419D01*
X121792856Y-90790752D02*
X121792856Y-91457419D01*
X121792856Y-90885990D02*
X121840475Y-90838371D01*
X121840475Y-90838371D02*
X121935713Y-90790752D01*
X121935713Y-90790752D02*
X122078570Y-90790752D01*
X122078570Y-90790752D02*
X122173808Y-90838371D01*
X122173808Y-90838371D02*
X122221427Y-90933609D01*
X122221427Y-90933609D02*
X122221427Y-91457419D01*
X123126189Y-91457419D02*
X123126189Y-90933609D01*
X123126189Y-90933609D02*
X123078570Y-90838371D01*
X123078570Y-90838371D02*
X122983332Y-90790752D01*
X122983332Y-90790752D02*
X122792856Y-90790752D01*
X122792856Y-90790752D02*
X122697618Y-90838371D01*
X123126189Y-91409800D02*
X123030951Y-91457419D01*
X123030951Y-91457419D02*
X122792856Y-91457419D01*
X122792856Y-91457419D02*
X122697618Y-91409800D01*
X122697618Y-91409800D02*
X122649999Y-91314561D01*
X122649999Y-91314561D02*
X122649999Y-91219323D01*
X122649999Y-91219323D02*
X122697618Y-91124085D01*
X122697618Y-91124085D02*
X122792856Y-91076466D01*
X122792856Y-91076466D02*
X123030951Y-91076466D01*
X123030951Y-91076466D02*
X123126189Y-91028847D01*
X123745237Y-91457419D02*
X123649999Y-91409800D01*
X123649999Y-91409800D02*
X123602380Y-91314561D01*
X123602380Y-91314561D02*
X123602380Y-90457419D01*
X124269047Y-91457419D02*
X124173809Y-91409800D01*
X124173809Y-91409800D02*
X124126190Y-91362180D01*
X124126190Y-91362180D02*
X124078571Y-91266942D01*
X124078571Y-91266942D02*
X124078571Y-90981228D01*
X124078571Y-90981228D02*
X124126190Y-90885990D01*
X124126190Y-90885990D02*
X124173809Y-90838371D01*
X124173809Y-90838371D02*
X124269047Y-90790752D01*
X124269047Y-90790752D02*
X124411904Y-90790752D01*
X124411904Y-90790752D02*
X124507142Y-90838371D01*
X124507142Y-90838371D02*
X124554761Y-90885990D01*
X124554761Y-90885990D02*
X124602380Y-90981228D01*
X124602380Y-90981228D02*
X124602380Y-91266942D01*
X124602380Y-91266942D02*
X124554761Y-91362180D01*
X124554761Y-91362180D02*
X124507142Y-91409800D01*
X124507142Y-91409800D02*
X124411904Y-91457419D01*
X124411904Y-91457419D02*
X124269047Y-91457419D01*
X125459523Y-90790752D02*
X125459523Y-91600276D01*
X125459523Y-91600276D02*
X125411904Y-91695514D01*
X125411904Y-91695514D02*
X125364285Y-91743133D01*
X125364285Y-91743133D02*
X125269047Y-91790752D01*
X125269047Y-91790752D02*
X125126190Y-91790752D01*
X125126190Y-91790752D02*
X125030952Y-91743133D01*
X125459523Y-91409800D02*
X125364285Y-91457419D01*
X125364285Y-91457419D02*
X125173809Y-91457419D01*
X125173809Y-91457419D02*
X125078571Y-91409800D01*
X125078571Y-91409800D02*
X125030952Y-91362180D01*
X125030952Y-91362180D02*
X124983333Y-91266942D01*
X124983333Y-91266942D02*
X124983333Y-90981228D01*
X124983333Y-90981228D02*
X125030952Y-90885990D01*
X125030952Y-90885990D02*
X125078571Y-90838371D01*
X125078571Y-90838371D02*
X125173809Y-90790752D01*
X125173809Y-90790752D02*
X125364285Y-90790752D01*
X125364285Y-90790752D02*
X125459523Y-90838371D01*
X126221428Y-90457419D02*
X126221428Y-91171704D01*
X126221428Y-91171704D02*
X126173809Y-91314561D01*
X126173809Y-91314561D02*
X126078571Y-91409800D01*
X126078571Y-91409800D02*
X125935714Y-91457419D01*
X125935714Y-91457419D02*
X125840476Y-91457419D01*
X126840476Y-91457419D02*
X126745238Y-91409800D01*
X126745238Y-91409800D02*
X126697619Y-91362180D01*
X126697619Y-91362180D02*
X126650000Y-91266942D01*
X126650000Y-91266942D02*
X126650000Y-90981228D01*
X126650000Y-90981228D02*
X126697619Y-90885990D01*
X126697619Y-90885990D02*
X126745238Y-90838371D01*
X126745238Y-90838371D02*
X126840476Y-90790752D01*
X126840476Y-90790752D02*
X126983333Y-90790752D01*
X126983333Y-90790752D02*
X127078571Y-90838371D01*
X127078571Y-90838371D02*
X127126190Y-90885990D01*
X127126190Y-90885990D02*
X127173809Y-90981228D01*
X127173809Y-90981228D02*
X127173809Y-91266942D01*
X127173809Y-91266942D02*
X127126190Y-91362180D01*
X127126190Y-91362180D02*
X127078571Y-91409800D01*
X127078571Y-91409800D02*
X126983333Y-91457419D01*
X126983333Y-91457419D02*
X126840476Y-91457419D01*
X127507143Y-90790752D02*
X127745238Y-91457419D01*
X127983333Y-90790752D02*
X127745238Y-91457419D01*
X127745238Y-91457419D02*
X127650000Y-91695514D01*
X127650000Y-91695514D02*
X127602381Y-91743133D01*
X127602381Y-91743133D02*
X127507143Y-91790752D01*
X128316667Y-91409800D02*
X128411905Y-91457419D01*
X128411905Y-91457419D02*
X128602381Y-91457419D01*
X128602381Y-91457419D02*
X128697619Y-91409800D01*
X128697619Y-91409800D02*
X128745238Y-91314561D01*
X128745238Y-91314561D02*
X128745238Y-91266942D01*
X128745238Y-91266942D02*
X128697619Y-91171704D01*
X128697619Y-91171704D02*
X128602381Y-91124085D01*
X128602381Y-91124085D02*
X128459524Y-91124085D01*
X128459524Y-91124085D02*
X128364286Y-91076466D01*
X128364286Y-91076466D02*
X128316667Y-90981228D01*
X128316667Y-90981228D02*
X128316667Y-90933609D01*
X128316667Y-90933609D02*
X128364286Y-90838371D01*
X128364286Y-90838371D02*
X128459524Y-90790752D01*
X128459524Y-90790752D02*
X128602381Y-90790752D01*
X128602381Y-90790752D02*
X128697619Y-90838371D01*
X129030953Y-90790752D02*
X129411905Y-90790752D01*
X129173810Y-90457419D02*
X129173810Y-91314561D01*
X129173810Y-91314561D02*
X129221429Y-91409800D01*
X129221429Y-91409800D02*
X129316667Y-91457419D01*
X129316667Y-91457419D02*
X129411905Y-91457419D01*
X129745239Y-91457419D02*
X129745239Y-90790752D01*
X129745239Y-90457419D02*
X129697620Y-90505038D01*
X129697620Y-90505038D02*
X129745239Y-90552657D01*
X129745239Y-90552657D02*
X129792858Y-90505038D01*
X129792858Y-90505038D02*
X129745239Y-90457419D01*
X129745239Y-90457419D02*
X129745239Y-90552657D01*
X130650000Y-91409800D02*
X130554762Y-91457419D01*
X130554762Y-91457419D02*
X130364286Y-91457419D01*
X130364286Y-91457419D02*
X130269048Y-91409800D01*
X130269048Y-91409800D02*
X130221429Y-91362180D01*
X130221429Y-91362180D02*
X130173810Y-91266942D01*
X130173810Y-91266942D02*
X130173810Y-90981228D01*
X130173810Y-90981228D02*
X130221429Y-90885990D01*
X130221429Y-90885990D02*
X130269048Y-90838371D01*
X130269048Y-90838371D02*
X130364286Y-90790752D01*
X130364286Y-90790752D02*
X130554762Y-90790752D01*
X130554762Y-90790752D02*
X130650000Y-90838371D01*
X131078572Y-91457419D02*
X131078572Y-90457419D01*
X131173810Y-91076466D02*
X131459524Y-91457419D01*
X131459524Y-90790752D02*
X131078572Y-91171704D01*
X132411905Y-91457419D02*
X131840477Y-91457419D01*
X132126191Y-91457419D02*
X132126191Y-90457419D01*
X132126191Y-90457419D02*
X132030953Y-90600276D01*
X132030953Y-90600276D02*
X131935715Y-90695514D01*
X131935715Y-90695514D02*
X131840477Y-90743133D01*
M02*
