%TF.GenerationSoftware,KiCad,Pcbnew,9.0.0*%
%TF.CreationDate,2025-03-20T22:49:20+00:00*%
%TF.ProjectId,PicoConsole,5069636f-436f-46e7-936f-6c652e6b6963,rev?*%
%TF.SameCoordinates,Original*%
%TF.FileFunction,Soldermask,Top*%
%TF.FilePolarity,Negative*%
%FSLAX46Y46*%
G04 Gerber Fmt 4.6, Leading zero omitted, Abs format (unit mm)*
G04 Created by KiCad (PCBNEW 9.0.0) date 2025-03-20 22:49:20*
%MOMM*%
%LPD*%
G01*
G04 APERTURE LIST*
G04 Aperture macros list*
%AMRoundRect*
0 Rectangle with rounded corners*
0 $1 Rounding radius*
0 $2 $3 $4 $5 $6 $7 $8 $9 X,Y pos of 4 corners*
0 Add a 4 corners polygon primitive as box body*
4,1,4,$2,$3,$4,$5,$6,$7,$8,$9,$2,$3,0*
0 Add four circle primitives for the rounded corners*
1,1,$1+$1,$2,$3*
1,1,$1+$1,$4,$5*
1,1,$1+$1,$6,$7*
1,1,$1+$1,$8,$9*
0 Add four rect primitives between the rounded corners*
20,1,$1+$1,$2,$3,$4,$5,0*
20,1,$1+$1,$4,$5,$6,$7,0*
20,1,$1+$1,$6,$7,$8,$9,0*
20,1,$1+$1,$8,$9,$2,$3,0*%
%AMFreePoly0*
4,1,37,0.603843,0.796157,0.639018,0.796157,0.711114,0.766294,0.766294,0.711114,0.796157,0.639018,0.796157,0.603843,0.800000,0.600000,0.800000,-0.600000,0.796157,-0.603843,0.796157,-0.639018,0.766294,-0.711114,0.711114,-0.766294,0.639018,-0.796157,0.603843,-0.796157,0.600000,-0.800000,0.000000,-0.800000,0.000000,-0.796148,-0.078414,-0.796148,-0.232228,-0.765552,-0.377117,-0.705537,
-0.507515,-0.618408,-0.618408,-0.507515,-0.705537,-0.377117,-0.765552,-0.232228,-0.796148,-0.078414,-0.796148,0.078414,-0.765552,0.232228,-0.705537,0.377117,-0.618408,0.507515,-0.507515,0.618408,-0.377117,0.705537,-0.232228,0.765552,-0.078414,0.796148,0.000000,0.796148,0.000000,0.800000,0.600000,0.800000,0.603843,0.796157,0.603843,0.796157,$1*%
%AMFreePoly1*
4,1,37,0.000000,0.796148,0.078414,0.796148,0.232228,0.765552,0.377117,0.705537,0.507515,0.618408,0.618408,0.507515,0.705537,0.377117,0.765552,0.232228,0.796148,0.078414,0.796148,-0.078414,0.765552,-0.232228,0.705537,-0.377117,0.618408,-0.507515,0.507515,-0.618408,0.377117,-0.705537,0.232228,-0.765552,0.078414,-0.796148,0.000000,-0.796148,0.000000,-0.800000,-0.600000,-0.800000,
-0.603843,-0.796157,-0.639018,-0.796157,-0.711114,-0.766294,-0.766294,-0.711114,-0.796157,-0.639018,-0.796157,-0.603843,-0.800000,-0.600000,-0.800000,0.600000,-0.796157,0.603843,-0.796157,0.639018,-0.766294,0.711114,-0.711114,0.766294,-0.639018,0.796157,-0.603843,0.796157,-0.600000,0.800000,0.000000,0.800000,0.000000,0.796148,0.000000,0.796148,$1*%
G04 Aperture macros list end*
%ADD10C,1.905000*%
%ADD11RoundRect,0.190500X-0.762000X-0.444500X0.762000X-0.444500X0.762000X0.444500X-0.762000X0.444500X0*%
%ADD12C,4.000000*%
%ADD13C,1.500000*%
%ADD14C,2.200000*%
%ADD15C,1.850000*%
%ADD16RoundRect,0.200000X0.600000X0.600000X-0.600000X0.600000X-0.600000X-0.600000X0.600000X-0.600000X0*%
%ADD17C,1.600000*%
%ADD18FreePoly0,180.000000*%
%ADD19FreePoly1,180.000000*%
G04 APERTURE END LIST*
D10*
%TO.C,but2*%
X75500000Y-96500000D03*
X75500000Y-101000000D03*
X82000000Y-96500000D03*
X82000000Y-101000000D03*
%TD*%
D11*
%TO.C,screenConnector1*%
X68500000Y-46000000D03*
X68500000Y-47500000D03*
X68500000Y-49000000D03*
X68500000Y-50500000D03*
X68500000Y-52000000D03*
X68500000Y-53500000D03*
X68500000Y-55000000D03*
X68500000Y-56500000D03*
%TD*%
D10*
%TO.C,but1*%
X69000000Y-86500000D03*
X69000000Y-91000000D03*
X75500000Y-86500000D03*
X75500000Y-91000000D03*
%TD*%
D12*
%TO.C,e*%
X82150000Y-63850000D03*
%TD*%
%TO.C,REF\u002A\u002A*%
X127850000Y-42150000D03*
%TD*%
D10*
%TO.C,but3*%
X81500000Y-86500000D03*
X81500000Y-91000000D03*
X88000000Y-86500000D03*
X88000000Y-91000000D03*
%TD*%
%TO.C,AnalogJoystick1*%
X135500000Y-91500000D03*
X135500000Y-89500000D03*
X135500000Y-93500000D03*
X126650000Y-100475000D03*
X128650000Y-100475000D03*
X124650000Y-100475000D03*
%TD*%
D13*
%TO.C,J1*%
X117100000Y-120500000D03*
X92900000Y-120500000D03*
%TD*%
D14*
%TO.C,A1*%
X107725000Y-28537500D03*
D15*
X107425000Y-31567500D03*
X102575000Y-31567500D03*
D14*
X102275000Y-28537500D03*
D16*
X113890000Y-28407500D03*
D17*
X113890000Y-30947500D03*
D18*
X113890000Y-33487500D03*
D17*
X113890000Y-36027500D03*
X113890000Y-38567500D03*
X113890000Y-41107500D03*
X113890000Y-43647500D03*
D18*
X113890000Y-46187500D03*
D17*
X113890000Y-48727500D03*
X113890000Y-51267500D03*
X113890000Y-53807500D03*
X113890000Y-56347500D03*
D18*
X113890000Y-58887500D03*
D17*
X113890000Y-61427500D03*
X113890000Y-63967500D03*
X113890000Y-66507500D03*
X113890000Y-69047500D03*
D18*
X113890000Y-71587500D03*
D17*
X113890000Y-74127500D03*
X113890000Y-76667500D03*
X96110000Y-76667500D03*
X96110000Y-74127500D03*
D19*
X96110000Y-71587500D03*
D17*
X96110000Y-69047500D03*
X96110000Y-66507500D03*
X96110000Y-63967500D03*
X96110000Y-61427500D03*
D19*
X96110000Y-58887500D03*
D17*
X96110000Y-56347500D03*
X96110000Y-53807500D03*
X96110000Y-51267500D03*
X96110000Y-48727500D03*
D19*
X96110000Y-46187500D03*
D17*
X96110000Y-43647500D03*
X96110000Y-41107500D03*
X96110000Y-38567500D03*
X96110000Y-36027500D03*
D19*
X96110000Y-33487500D03*
D17*
X96110000Y-30947500D03*
X96110000Y-28407500D03*
%TD*%
M02*
