M48
; DRILL file {KiCad 9.0.0} date 2025-03-20T22:52:41+0000
; FORMAT={-:-/ absolute / metric / decimal}
; #@! TF.CreationDate,2025-03-20T22:52:41+00:00
; #@! TF.GenerationSoftware,Kicad,Pcbnew,9.0.0
; #@! TF.FileFunction,Plated,1,2,PTH
FMAT,2
METRIC
; #@! TA.AperFunction,Plated,PTH,ViaDrill
T1C0.300
; #@! TA.AperFunction,Plated,PTH,ComponentDrill
T2C0.700
; #@! TA.AperFunction,Plated,PTH,ComponentDrill
T3C0.900
; #@! TA.AperFunction,Plated,PTH,ComponentDrill
T4C1.000
; #@! TA.AperFunction,Plated,PTH,ComponentDrill
T5C3.400
%
G90
G05
T1
X67.674Y-57.639
X78.5Y-66.327
X89.792Y-56.715
X93.098Y-64.51
X93.632Y-70.194
X103.92Y-99.222
X105.62Y-101.746
X110.62Y-97.512
X111.853Y-57.55
X117.253Y-41.107
X126.65Y-54.91
X136.796Y-52.679
T2
X124.65Y-100.475
X126.65Y-100.475
X128.65Y-100.475
X135.5Y-89.5
X135.5Y-91.5
X135.5Y-93.5
T3
X69.0Y-86.5
X69.0Y-91.0
X75.5Y-86.5
X75.5Y-91.0
X75.5Y-96.5
X75.5Y-101.0
X81.5Y-86.5
X81.5Y-91.0
X82.0Y-96.5
X82.0Y-101.0
X88.0Y-86.5
X88.0Y-91.0
T4
X96.11Y-28.407
X96.11Y-30.947
X96.11Y-33.487
X96.11Y-36.027
X96.11Y-38.567
X96.11Y-41.107
X96.11Y-43.648
X96.11Y-46.188
X96.11Y-48.727
X96.11Y-51.267
X96.11Y-53.807
X96.11Y-56.347
X96.11Y-58.887
X96.11Y-61.427
X96.11Y-63.967
X96.11Y-66.507
X96.11Y-69.047
X96.11Y-71.587
X96.11Y-74.127
X96.11Y-76.667
X113.89Y-28.407
X113.89Y-30.947
X113.89Y-33.487
X113.89Y-36.027
X113.89Y-38.567
X113.89Y-41.107
X113.89Y-43.648
X113.89Y-46.188
X113.89Y-48.727
X113.89Y-51.267
X113.89Y-53.807
X113.89Y-56.347
X113.89Y-58.887
X113.89Y-61.427
X113.89Y-63.967
X113.89Y-66.507
X113.89Y-69.047
X113.89Y-71.587
X113.89Y-74.127
X113.89Y-76.667
T5
X82.15Y-63.85
X127.85Y-42.15
M30
