%TF.GenerationSoftware,KiCad,Pcbnew,9.0.0*%
%TF.CreationDate,2025-03-20T22:52:04+00:00*%
%TF.ProjectId,PicoConsole,5069636f-436f-46e7-936f-6c652e6b6963,rev?*%
%TF.SameCoordinates,Original*%
%TF.FileFunction,Copper,L1,Top*%
%TF.FilePolarity,Positive*%
%FSLAX46Y46*%
G04 Gerber Fmt 4.6, Leading zero omitted, Abs format (unit mm)*
G04 Created by KiCad (PCBNEW 9.0.0) date 2025-03-20 22:52:04*
%MOMM*%
%LPD*%
G01*
G04 APERTURE LIST*
G04 Aperture macros list*
%AMRoundRect*
0 Rectangle with rounded corners*
0 $1 Rounding radius*
0 $2 $3 $4 $5 $6 $7 $8 $9 X,Y pos of 4 corners*
0 Add a 4 corners polygon primitive as box body*
4,1,4,$2,$3,$4,$5,$6,$7,$8,$9,$2,$3,0*
0 Add four circle primitives for the rounded corners*
1,1,$1+$1,$2,$3*
1,1,$1+$1,$4,$5*
1,1,$1+$1,$6,$7*
1,1,$1+$1,$8,$9*
0 Add four rect primitives between the rounded corners*
20,1,$1+$1,$2,$3,$4,$5,0*
20,1,$1+$1,$4,$5,$6,$7,0*
20,1,$1+$1,$6,$7,$8,$9,0*
20,1,$1+$1,$8,$9,$2,$3,0*%
%AMFreePoly0*
4,1,37,0.603843,0.796157,0.639018,0.796157,0.711114,0.766294,0.766294,0.711114,0.796157,0.639018,0.796157,0.603843,0.800000,0.600000,0.800000,-0.600000,0.796157,-0.603843,0.796157,-0.639018,0.766294,-0.711114,0.711114,-0.766294,0.639018,-0.796157,0.603843,-0.796157,0.600000,-0.800000,0.000000,-0.800000,0.000000,-0.796148,-0.078414,-0.796148,-0.232228,-0.765552,-0.377117,-0.705537,
-0.507515,-0.618408,-0.618408,-0.507515,-0.705537,-0.377117,-0.765552,-0.232228,-0.796148,-0.078414,-0.796148,0.078414,-0.765552,0.232228,-0.705537,0.377117,-0.618408,0.507515,-0.507515,0.618408,-0.377117,0.705537,-0.232228,0.765552,-0.078414,0.796148,0.000000,0.796148,0.000000,0.800000,0.600000,0.800000,0.603843,0.796157,0.603843,0.796157,$1*%
%AMFreePoly1*
4,1,37,0.000000,0.796148,0.078414,0.796148,0.232228,0.765552,0.377117,0.705537,0.507515,0.618408,0.618408,0.507515,0.705537,0.377117,0.765552,0.232228,0.796148,0.078414,0.796148,-0.078414,0.765552,-0.232228,0.705537,-0.377117,0.618408,-0.507515,0.507515,-0.618408,0.377117,-0.705537,0.232228,-0.765552,0.078414,-0.796148,0.000000,-0.796148,0.000000,-0.800000,-0.600000,-0.800000,
-0.603843,-0.796157,-0.639018,-0.796157,-0.711114,-0.766294,-0.766294,-0.711114,-0.796157,-0.639018,-0.796157,-0.603843,-0.800000,-0.600000,-0.800000,0.600000,-0.796157,0.603843,-0.796157,0.639018,-0.766294,0.711114,-0.711114,0.766294,-0.639018,0.796157,-0.603843,0.796157,-0.600000,0.800000,0.000000,0.800000,0.000000,0.796148,0.000000,0.796148,$1*%
G04 Aperture macros list end*
%TA.AperFunction,ComponentPad*%
%ADD10C,1.905000*%
%TD*%
%TA.AperFunction,SMDPad,CuDef*%
%ADD11RoundRect,0.190500X-0.762000X-0.444500X0.762000X-0.444500X0.762000X0.444500X-0.762000X0.444500X0*%
%TD*%
%TA.AperFunction,ComponentPad*%
%ADD12C,4.000000*%
%TD*%
%TA.AperFunction,ComponentPad*%
%ADD13RoundRect,0.200000X0.600000X0.600000X-0.600000X0.600000X-0.600000X-0.600000X0.600000X-0.600000X0*%
%TD*%
%TA.AperFunction,ComponentPad*%
%ADD14C,1.600000*%
%TD*%
%TA.AperFunction,ComponentPad*%
%ADD15FreePoly0,180.000000*%
%TD*%
%TA.AperFunction,ComponentPad*%
%ADD16FreePoly1,180.000000*%
%TD*%
%TA.AperFunction,ViaPad*%
%ADD17C,0.600000*%
%TD*%
%TA.AperFunction,Conductor*%
%ADD18C,0.200000*%
%TD*%
G04 APERTURE END LIST*
D10*
%TO.P,but2,1,VCC*%
%TO.N,unconnected-(but2-VCC-Pad1)*%
X75500000Y-96500000D03*
%TO.P,but2,2,VCC*%
%TO.N,VCC*%
X75500000Y-101000000D03*
%TO.P,but2,3,GND*%
%TO.N,unconnected-(but2-GND-Pad3)*%
X82000000Y-96500000D03*
%TO.P,but2,4,GND*%
%TO.N,pinTwo*%
X82000000Y-101000000D03*
%TD*%
D11*
%TO.P,screenConnector1,1,bl*%
%TO.N,SCR_BL*%
X68500000Y-46000000D03*
%TO.P,screenConnector1,2,RST*%
%TO.N,SCR_RST*%
X68500000Y-47500000D03*
%TO.P,screenConnector1,3,DC*%
%TO.N,SCR_DC*%
X68500000Y-49000000D03*
%TO.P,screenConnector1,4,CS*%
%TO.N,SCR_CS*%
X68500000Y-50500000D03*
%TO.P,screenConnector1,5,CLK*%
%TO.N,CLOCK*%
X68500000Y-52000000D03*
%TO.P,screenConnector1,6,DIN*%
%TO.N,MOSI*%
X68500000Y-53500000D03*
%TO.P,screenConnector1,7,GND*%
%TO.N,GROUND*%
X68500000Y-55000000D03*
%TO.P,screenConnector1,8,VCC*%
%TO.N,VCC*%
X68500000Y-56500000D03*
%TD*%
D10*
%TO.P,but1,1,VCC*%
%TO.N,unconnected-(but1-VCC-Pad1)*%
X69000000Y-86500000D03*
%TO.P,but1,2,VCC*%
%TO.N,VCC*%
X69000000Y-91000000D03*
%TO.P,but1,3,GND*%
%TO.N,unconnected-(but1-GND-Pad3)*%
X75500000Y-86500000D03*
%TO.P,but1,4,GND*%
%TO.N,pinThree*%
X75500000Y-91000000D03*
%TD*%
D12*
%TO.P,e,1*%
%TO.N,N/C*%
X82150000Y-63850000D03*
%TD*%
%TO.P,REF\u002A\u002A,1*%
%TO.N,N/C*%
X127850000Y-42150000D03*
%TD*%
D10*
%TO.P,but3,1,VCC*%
%TO.N,unconnected-(but3-VCC-Pad1)*%
X81500000Y-86500000D03*
%TO.P,but3,2,VCC*%
%TO.N,VCC*%
X81500000Y-91000000D03*
%TO.P,but3,3,GND*%
%TO.N,unconnected-(but3-GND-Pad3)*%
X88000000Y-86500000D03*
%TO.P,but3,4,GND*%
%TO.N,pinOne*%
X88000000Y-91000000D03*
%TD*%
%TO.P,AnalogJoystick1,1,xout*%
%TO.N,JOYx*%
X135500000Y-91500000D03*
%TO.P,AnalogJoystick1,2,gnd*%
%TO.N,GROUND*%
X135500000Y-89500000D03*
%TO.P,AnalogJoystick1,3,vcc*%
%TO.N,VCC*%
X135500000Y-93500000D03*
%TO.P,AnalogJoystick1,4,yout*%
%TO.N,JOYy*%
X126650000Y-100475000D03*
%TO.P,AnalogJoystick1,5,gnd*%
%TO.N,GROUND*%
X128650000Y-100475000D03*
%TO.P,AnalogJoystick1,6,vcc*%
%TO.N,VCC*%
X124650000Y-100475000D03*
%TD*%
D13*
%TO.P,A1,1,GPIO0*%
%TO.N,unconnected-(A1-GPIO0-Pad1)*%
X113890000Y-28407500D03*
D14*
%TO.P,A1,2,GPIO1*%
%TO.N,unconnected-(A1-GPIO1-Pad2)*%
X113890000Y-30947500D03*
D15*
%TO.P,A1,3,GND*%
%TO.N,GROUND*%
X113890000Y-33487500D03*
D14*
%TO.P,A1,4,GPIO2*%
%TO.N,CLOCK*%
X113890000Y-36027500D03*
%TO.P,A1,5,GPIO3*%
%TO.N,MOSI*%
X113890000Y-38567500D03*
%TO.P,A1,6,GPIO4*%
%TO.N,MISO*%
X113890000Y-41107500D03*
%TO.P,A1,7,GPIO5*%
%TO.N,unconnected-(A1-GPIO5-Pad7)*%
X113890000Y-43647500D03*
D15*
%TO.P,A1,8,GND*%
%TO.N,GROUND*%
X113890000Y-46187500D03*
D14*
%TO.P,A1,9,GPIO6*%
%TO.N,SCR_CS*%
X113890000Y-48727500D03*
%TO.P,A1,10,GPIO7*%
%TO.N,SCR_DC*%
X113890000Y-51267500D03*
%TO.P,A1,11,GPIO8*%
%TO.N,SCR_BL*%
X113890000Y-53807500D03*
%TO.P,A1,12,GPIO9*%
%TO.N,SCR_RST*%
X113890000Y-56347500D03*
D15*
%TO.P,A1,13,GND*%
%TO.N,GROUND*%
X113890000Y-58887500D03*
D14*
%TO.P,A1,14,GPIO10*%
%TO.N,unconnected-(A1-GPIO10-Pad14)*%
X113890000Y-61427500D03*
%TO.P,A1,15,GPIO11*%
%TO.N,unconnected-(A1-GPIO11-Pad15)*%
X113890000Y-63967500D03*
%TO.P,A1,16,GPIO12*%
%TO.N,MMC_CS*%
X113890000Y-66507500D03*
%TO.P,A1,17,GPIO13*%
%TO.N,unconnected-(A1-GPIO13-Pad17)*%
X113890000Y-69047500D03*
D15*
%TO.P,A1,18,GND*%
%TO.N,GROUND*%
X113890000Y-71587500D03*
D14*
%TO.P,A1,19,GPIO14*%
%TO.N,unconnected-(A1-GPIO14-Pad19)*%
X113890000Y-74127500D03*
%TO.P,A1,20,GPIO15*%
%TO.N,unconnected-(A1-GPIO15-Pad20)*%
X113890000Y-76667500D03*
%TO.P,A1,21,GPIO16*%
%TO.N,unconnected-(A1-GPIO16-Pad21)*%
X96110000Y-76667500D03*
%TO.P,A1,22,GPIO17*%
%TO.N,unconnected-(A1-GPIO17-Pad22)*%
X96110000Y-74127500D03*
D16*
%TO.P,A1,23,GND*%
%TO.N,GROUND*%
X96110000Y-71587500D03*
D14*
%TO.P,A1,24,GPIO18*%
%TO.N,unconnected-(A1-GPIO18-Pad24)*%
X96110000Y-69047500D03*
%TO.P,A1,25,GPIO19*%
%TO.N,unconnected-(A1-GPIO19-Pad25)*%
X96110000Y-66507500D03*
%TO.P,A1,26,GPIO20*%
%TO.N,pinThree*%
X96110000Y-63967500D03*
%TO.P,A1,27,GPIO21*%
%TO.N,pinTwo*%
X96110000Y-61427500D03*
D16*
%TO.P,A1,28,GND*%
%TO.N,GROUND*%
X96110000Y-58887500D03*
D14*
%TO.P,A1,29,GPIO22*%
%TO.N,pinOne*%
X96110000Y-56347500D03*
%TO.P,A1,30,RUN*%
%TO.N,unconnected-(A1-RUN-Pad30)*%
X96110000Y-53807500D03*
%TO.P,A1,31,GPIO26_ADC0*%
%TO.N,JOYy*%
X96110000Y-51267500D03*
%TO.P,A1,32,GPIO27_ADC1*%
%TO.N,JOYx*%
X96110000Y-48727500D03*
D16*
%TO.P,A1,33,AGND*%
%TO.N,unconnected-(A1-AGND-Pad33)*%
X96110000Y-46187500D03*
D14*
%TO.P,A1,34,GPIO28_ADC2*%
%TO.N,unconnected-(A1-GPIO28_ADC2-Pad34)*%
X96110000Y-43647500D03*
%TO.P,A1,35,ADC_VREF*%
%TO.N,unconnected-(A1-ADC_VREF-Pad35)*%
X96110000Y-41107500D03*
%TO.P,A1,36,3V3*%
%TO.N,VCC*%
X96110000Y-38567500D03*
%TO.P,A1,37,3V3_EN*%
%TO.N,unconnected-(A1-3V3_EN-Pad37)*%
X96110000Y-36027500D03*
D16*
%TO.P,A1,38,GND*%
%TO.N,GROUND*%
X96110000Y-33487500D03*
D14*
%TO.P,A1,39,VSYS*%
%TO.N,unconnected-(A1-VSYS-Pad39)*%
X96110000Y-30947500D03*
%TO.P,A1,40,VBUS*%
%TO.N,unconnected-(A1-VBUS-Pad40)*%
X96110000Y-28407500D03*
%TD*%
D17*
%TO.N,GROUND*%
X105620000Y-101746100D03*
%TO.N,VCC*%
X103920000Y-99222300D03*
X67673700Y-57639100D03*
X110620000Y-97511900D03*
X89791700Y-56715500D03*
%TO.N,MMC_CS*%
X93631700Y-70193700D03*
%TO.N,MOSI*%
X111852900Y-57549800D03*
X93098400Y-64510200D03*
%TO.N,JOYx*%
X136796400Y-52679000D03*
%TO.N,JOYy*%
X126650000Y-54910200D03*
%TO.N,pinThree*%
X78500100Y-66326700D03*
%TO.N,MISO*%
X117252700Y-41107500D03*
%TD*%
D18*
%TO.N,GROUND*%
X128650000Y-100475000D02*
X127378900Y-101746100D01*
X127378900Y-101746100D02*
X105620000Y-101746100D01*
X92222500Y-55000000D02*
X96110000Y-58887500D01*
X68500000Y-55000000D02*
X92222500Y-55000000D01*
X96110000Y-58887500D02*
X113890000Y-58887500D01*
X96110000Y-33487500D02*
X113890000Y-33487500D01*
%TO.N,SCR_DC*%
X67237500Y-48237700D02*
X67237500Y-45277900D01*
X68500000Y-49000000D02*
X67999800Y-49000000D01*
X107654400Y-45031900D02*
X113890000Y-51267500D01*
X67237500Y-45277900D02*
X67483500Y-45031900D01*
X67483500Y-45031900D02*
X107654400Y-45031900D01*
X67999800Y-49000000D02*
X67237500Y-48237700D01*
%TO.N,VCC*%
X124650000Y-97511900D02*
X128661900Y-93500000D01*
X70265600Y-89734400D02*
X80234400Y-89734400D01*
X124650000Y-100475000D02*
X124650000Y-97511900D01*
X103920000Y-99222300D02*
X108909600Y-99222300D01*
X77277700Y-99222300D02*
X103920000Y-99222300D01*
X80234400Y-89734400D02*
X81500000Y-91000000D01*
X128661900Y-93500000D02*
X135500000Y-93500000D01*
X124650000Y-97511900D02*
X110620000Y-97511900D01*
X68500000Y-56812800D02*
X67673700Y-57639100D01*
X68500000Y-56500000D02*
X68500000Y-56715500D01*
X108909600Y-99222300D02*
X110620000Y-97511900D01*
X68500000Y-56715500D02*
X68500000Y-56812800D01*
X69000000Y-91000000D02*
X70265600Y-89734400D01*
X68500000Y-56715500D02*
X89791700Y-56715500D01*
X75500000Y-101000000D02*
X77277700Y-99222300D01*
%TO.N,MMC_CS*%
X113890000Y-66507500D02*
X100244100Y-66507500D01*
X96557900Y-70193700D02*
X93631700Y-70193700D01*
X100244100Y-66507500D02*
X96557900Y-70193700D01*
%TO.N,SCR_RST*%
X88758500Y-47500000D02*
X93964300Y-52705800D01*
X100208100Y-56347500D02*
X113890000Y-56347500D01*
X68500000Y-47500000D02*
X88758500Y-47500000D01*
X96566400Y-52705800D02*
X100208100Y-56347500D01*
X93964300Y-52705800D02*
X96566400Y-52705800D01*
%TO.N,MOSI*%
X95807100Y-60154800D02*
X114179700Y-60154800D01*
X93098400Y-64411000D02*
X93098400Y-64510200D01*
X67071900Y-57958800D02*
X69442100Y-60329000D01*
X114179700Y-60154800D02*
X115027400Y-59307100D01*
X115027400Y-58418600D02*
X114158600Y-57549800D01*
X92324700Y-63637200D02*
X93098400Y-64411000D01*
X114158600Y-57549800D02*
X111852900Y-57549800D01*
X115027400Y-59307100D02*
X115027400Y-58418600D01*
X89016400Y-60329000D02*
X92324700Y-63637200D01*
X92324700Y-63637200D02*
X95807100Y-60154800D01*
X68038400Y-53500000D02*
X67071900Y-54466500D01*
X68500000Y-53500000D02*
X68038400Y-53500000D01*
X67071900Y-54466500D02*
X67071900Y-57958800D01*
X69442100Y-60329000D02*
X89016400Y-60329000D01*
%TO.N,SCR_BL*%
X93632500Y-49857400D02*
X109939900Y-49857400D01*
X68500000Y-46000000D02*
X89775100Y-46000000D01*
X109939900Y-49857400D02*
X113890000Y-53807500D01*
X89775100Y-46000000D02*
X93632500Y-49857400D01*
%TO.N,CLOCK*%
X68500000Y-52000000D02*
X68087500Y-52000000D01*
X68087500Y-52000000D02*
X66339500Y-50252000D01*
X73990800Y-37297500D02*
X112620000Y-37297500D01*
X66339500Y-44948800D02*
X73990800Y-37297500D01*
X66339500Y-50252000D02*
X66339500Y-44948800D01*
X112620000Y-37297500D02*
X113890000Y-36027500D01*
%TO.N,JOYx*%
X113336500Y-52679000D02*
X136796400Y-52679000D01*
X96110000Y-48727500D02*
X109385000Y-48727500D01*
X109385000Y-48727500D02*
X113336500Y-52679000D01*
%TO.N,JOYy*%
X126650000Y-54910200D02*
X99752700Y-54910200D01*
X99752700Y-54910200D02*
X96110000Y-51267500D01*
%TO.N,pinThree*%
X93750800Y-66326700D02*
X78500100Y-66326700D01*
X96110000Y-63967500D02*
X93750800Y-66326700D01*
%TO.N,MISO*%
X113890000Y-41107500D02*
X117252700Y-41107500D01*
%TO.N,SCR_CS*%
X68500000Y-50500000D02*
X67999800Y-50500000D01*
X66781000Y-45107800D02*
X69343700Y-42545100D01*
X66781000Y-49281200D02*
X66781000Y-45107800D01*
X69343700Y-42545100D02*
X107707600Y-42545100D01*
X67999800Y-50500000D02*
X66781000Y-49281200D01*
X107707600Y-42545100D02*
X113890000Y-48727500D01*
%TD*%
M02*
